<?xml version="1.0" encoding="UTF-8"?>
<!DOCTYPE svg PUBLIC "-//W3C//DTD SVG 1.1//EN" "http://www.w3.org/Graphics/SVG/1.1/DTD/svg11.dtd"><svg xmlns:svg="http://www.w3.org/2000/svg" xmlns:xlink="http://www.w3.org/1999/xlink" version="1.1" width="800" height="400" font-family="Helvetica, Arial" baseProfile="full" xmlns="http://www.w3.org/2000/svg"><rect y="0" x="0" height="380" fill="black" stroke-width="1" width="720" /><g><polyline points="0,195 0.63024241266692,145 1.1187133242186,210 1.6315805077788,225 2.1745371592821,165 2.7462286483867,220 3.2639759911591,210 4.3797150745229,190 5.4648230963245,205 5.9988331124189,195 7.0953242946233,220 7.6103610841266,235 8.7239312078406,180 9.241678550613,185 9.7843656978928,165 10.329491309046,195 10.875702046317,185 11.419200291439,225 12.531415138519,180 13.080879961558,220 13.784042978613,225 14.138304664635,180 14.682331577514,230 15.282984106806,230 16.337156016701,250 16.884420211729,225 17.398594846234,240 17.976744096012,245 19.05396087904,220 19.599057407004,155 20.147676878665,225 20.785745254502,240 21.231621572883,215 22.318811951059,255 22.834900259439,240 23.437459353381,230 23.922644510803,220 24.466381884374,165 25.611087824562,230 26.096002185174,215 26.640215876761,280 27.179890651893,275 27.928290954613,260 28.840958282444,215 29.356762221859,155 29.932220307161,215 30.443973281414,205 32.642895725722,240 33.767823804408,220 34.848222288376,220 35.90483589361,235 36.510652304786,225 36.967919539087,210 38.081189136508,185 39.163558168144,200 39.682901208585,245 40.22718340724,215 41.339636736474,185 42.074214122332,215 42.459918614051,235 42.943751726304,160 43.520294291431,205 44.630309156792,225 45.121464123595,230 45.662190417604,225 46.20492668316,220 46.750249413709,245 47.884347098924,185 48.533764381629,165 48.924870591094,220 49.529897232099,260 50.016735607275,210 51.156590471442,205 51.674326180938,190 52.190435170698,190 52.736091388487,190 53.275782320947,270 54.424851385866,190 54.908700655446,210 55.496912688821,195 56.346713147755,190 57.657884155895,225 58.171281299799,190 58.745126237519,200 59.260420251677,170 59.803363331025,190 60.916375057499,200 61.431940514759,185 62.008501822386,185 62.52325941327,185 63.067291496494,185 63.611860649287,195 64.154534224411,220 64.699526699185,215 65.244384098701,130 65.789785030716,215 66.330306449811,205 67.989554118987,145 69.078460405348,185 69.620337747371,185 70.890864028628,220 71.224555497804,60 71.768058913271,190 72.366319511793,215 72.858047740578,225 73.398840602776,185 74.002522307836,185 74.485576636901,215 75.626258109945,180 76.142654053842,195 77.229934913051,165 77.746872450567,255 78.29118954905,270 78.836591127357,160 79.381720616269,205 80.587189095015,190 81.009793045091,215 81.557091493653,170 82.132040299991,215 82.674459235633,185 83.189229752378,230 83.732190927933,250 84.276507380123,190 85.004342636342,190 85.368665167079,185 85.912711468752,250 86.454588164482,195 87.567349129233,180 88.167507890595,150 88.614776324317,200 89.22523441255,145 90.316580455371,210 91.37268672052,185 91.887727387782,180 92.462404104724,195 93.549413520831,110 94.064724984903,240 94.61229552286,200 95.155798938327,240 95.699302353795,210 96.813960835092,215 97.331170462004,165 97.873860840749,175 98.449080443897,215 99.152789578624,215 99.505184770167,210 100.05031490537,225 101.31352320984,200 101.67757494376,195 102.22216283906,185 102.76702153116,200 103.36690884942,170 103.88466071624,115 104.39780386696,180 105.51381827118,180 106.02940053206,165 106.57344683374,220 107.11803472903,195 108.26034227552,225 108.75044507715,165 109.89383710346,260 110.95075705163,235 111.46932195517,160 112.00930113436,190 113.87673532267,225 114.73007746781,250 115.27276784655,225 116.38607105121,165 116.90273843821,185 117.5080475093,110 117.99299935492,190 118.53677356719,215 119.65061836548,245 120.24372930056,210 120.71295812759,195 121.25808890909,225 121.83059731268,195 122.34401190649,190 122.89022587523,195 123.43427153061,185 124.0073228204,190 124.5199237312,220 125.0688488995,195 126.72375994196,160 127.24042732896,200 127.96555138562,225 128.3274341599,215 129.44073801085,190 129.95659171484,175 130.50172185004,205 131.04712278206,225 131.61285480247,190 132.7047430852,205 134.33796776263,220 134.85219603947,200 135.99884085896,190 136.48921381111,205 137.03054955951,190 137.57432377179,220 138.17665020022,160 139.23275711166,255 139.74373130272,205 140.28723536448,195 140.83019654004,205 141.3734291587,185 142.65642566535,255 143.00285751045,190 143.57617959705,200 144.08823826794,245 144.63879015597,235 145.19964266347,235 146.29234398292,255 147.40808759034,170 147.92258537139,145 148.43681300193,210 148.98031706369,125 149.52436271907,210 150.06759533773,170 151.17954326576,165 152.27061786548,195 153.32780925675,185 153.87158346902,225 154.41562977069,225 155.5587510002,240 156.81491083209,85 157.12989793261,220 157.67557030773,240 158.22151347965,210 158.79212501298,175 159.87859154289,210 160.39119309998,225 160.93632258889,230 162.07863078167,210 162.57035965675,205 163.14449413378,220 164.2277085168,215 165.346432828,190 165.86445549163,240 166.41039930985,205 166.91839150454,225 167.49225583106,190 168.00539898177,250 168.54998752336,115 169.650278909,245 170.21031773348,190 172.05064445022,215 172.40520860142,250 173.98964073483,210 175.10077497984,200 175.61690012693,205 176.15850602585,230 176.70499208398,200 177.24903773936,285 177.79118587819,180 178.37101355116,210 178.88253062843,220 179.45612351184,230 179.99853792343,230 180.54637796561,225 181.63094697897,215 182.14978332561,245 182.69138922454,215 183.23597711983,245 184.89359871556,240 186.14135609084,270 186.52248547369,225 187.04267645068,285 188.15706413517,280 188.67237559924,225 189.21750638074,220 189.76317810956,220 190.30315793504,225 190.84910110696,240 193.07652249189,175 193.59671411518,235 195.22316176314,220 195.74037074376,280 196.28631456198,230 196.82656518426,245 197.36952700611,210 198.48581220715,195 199.0325684158,250 199.54733828625,215 200.31718905702,180 201.181103911,225 201.7218967732,225 202.86664407615,225 203.35430647503,215 204.46679664297,230 205.55787188898,190 206.10544178065,200 206.64758927319,225 207.16235978993,220 207.70721848203,220 208.25072254379,155 208.79530979279,225 209.34071072481,250 209.8815042333,205 210.42392316894,220 211.60363945275,215 212.11624036355,220 212.60119156287,170 214.47838413073,195 214.77412526897,270 215.31844236745,220 215.86465633619,225 216.97416450776,195 218.03704780237,235 218.58217793758,195 219.12595214985,220 220.26663426919,225 221.3213852577,230 221.84022095806,225 222.38589268688,220 222.96057005012,235 223.52819958708,210 224.58918471885,185 225.10585275215,225 225.64908472451,255 226.7632009659,205 227.28013914971,190 227.824727045,220 228.56991010066,180 230.02747812964,200 231.11204778929,190 231.62871453,210 232.17113411193,210 232.71409593378,245 233.25814094287,235 233.82956551292,230 235.45926595406,260 236.54519153664,195 237.0599607608,185 238.17841427519,195 238.69481021909,180 239.80919790357,190 240.3266783273,195 240.87099477949,185 241.41368580452,255 241.99459731102,225 243.31283294906,185 244.16210861799,180 244.6793188912,165 245.22173782684,215 246.34046278433,245 247.94197192038,185 248.48737285239,210 249.60013381714,165 250.17426894046,160 250.67304499552,195 251.20624779153,190 251.74920961338,200 252.29379686238,185 252.83702948104,185 253.38215961624,245 253.92566238542,255 254.46916644718,250 255.61282991659,190 256.1010339091,240 256.64535165387,190 257.97876742428,195 258.27667687587,140 259.38970928373,190 259.90610522762,160 260.45042167981,165 260.99229966813,180 261.54095339333,240 262.08174560923,240 263.89306733786,210 264.31268993786,185 264.83125419511,115 266.97382957533,170 267.51977274726,170 268.05948112963,225 268.60515285846,190 269.15082523357,210 270.27198930124,210 270.87052134286,175 271.38420608719,160 272.62518578671,255 273.52379817846,145 274.13371467307,200 274.58776336773,180 275.73223987386,190 276.21637868275,215 276.76340568821,175 277.36383524638,245 279.53541496843,175 280.01982392784,220 280.56197206667,185 281.11008419825,220 282.22365819972,215 282.77692064103,200 283.89320584206,215 284.37273528855,180 284.91542566729,200 285.49118686406,180 287.88911458771,190 288.74625176593,190 289.89723450473,190 290.35345215903,165 290.89641333458,195 291.44208506341,180 291.98775808482,240 292.53099005718,225 293.16205067692,190 293.62043664458,155 294.16556742608,180 295.27859918764,240 295.79445289162,180 296.34175134018,195 296.88444171893,155 297.4282165775,215 298.00235170082,210 298.54449919336,245 299.06469081664,200 299.66268061836,225 300.14898709431,180 300.72339366073,195 301.23789208808,195 302.54907989984,185 303.46639601396,210 303.95541368947,165 305.10070323233,185 306.15626790386,205 306.67564584413,220 307.22023309313,210 308.33353629779,190 308.84911920497,170 309.39235117733,230 309.93558379599,205 310.47935865456,220 311.6281724337,230 312.1082441201,215 312.6812947636,245 313.1938963207,240 313.76992896057,195 314.28415594481,190 315.3863454933,195 315.94502904114,205 316.6579543155,235 317.00194705043,215 317.57743745038,210 318.086785568,210 319.23451486732,190 319.72109343267,155 320.26595212477,220 321.37952612625,205 321.8945674398,165 322.47005719347,220 323.04663207325,220 323.52941431292,240 324.64651255067,195 325.21359984772,180 325.70831007288,160 326.31388929449,130 327.36294837965,230 327.91078906813,170 328.42555829228,190 329.54130125341,210 330.05607112386,200 331.37349372517,220 331.71613118346,205 332.25990539574,215 332.77630133964,200 333.3160103683,195 333.86032682049,215 334.46427996866,170 334.97498400921,140 335.48812715992,225 336.03271440892,185 336.57594702758,190 337.11945108934,220 337.66241226489,265 338.20320512709,215 339.35283258925,260 339.83534403211,220 340.37640769112,185 341.4905239325,215 342.03782302736,200 342.55069473497,205 343.09446959354,220 343.66860471686,170 344.21156653871,185 345.49645991562,195 345.8141582157,190 346.38476910274,150 346.89926753009,185 349.12831563475,240 349.61624883044,190 350.72684083554,250 351.24513494228,185 351.7908073174,255 352.33620760312,175 352.88215142134,240 354.57121776165,205 355.62379979051,165 356.17055664545,220 357.28467288684,220 358.36761582675,215 358.92060682495,190 359.5844674659,250 360.51804819221,250 361.60722592168,200 362.12443554859,180 362.72811725365,195 363.21225541624,240 363.7552165918,235 364.35998342298,205 364.84303710575,205 365.39169083094,260 365.93682161244,215 366.47761447464,235 367.59063848068,160 368.69851928622,220 369.2263003294,170 370.40655885312,215 370.82807832337,215 371.37564756875,165 371.94598830527,210 372.46075752943,235 373.76110248182,245 374.12190142256,220 374.63585825629,205 375.17881943185,180 375.78331481992,220 376.26745233623,230 376.80932967825,220 377.35527349647,190 377.89850546883,230 378.44146664439,265 379.55612512569,230 380.64313454179,105 381.15871744897,245 381.70438917779,190 382.2454528368,245 382.82799170933,250 383.33218951722,160 383.87786124604,225 384.4208224216,235 384.96568175999,215 385.50972741537,205 386.05268859093,210 386.62438395779,210 387.90710837505,185 388.22507811823,125 388.77346104662,200 389.8873058449,155 390.46713416416,270 390.94693505375,215 391.49206454266,220 392.04044747105,225 392.57798754006,215 393.72192245258,225 394.80730450266,185 395.29659297498,210 395.83684359727,220 396.38197373247,70 396.99107783666,190 397.50015451118,205 398.01600821516,215 398.56032466735,240 399.67362851831,220 401.30766623246,220 402.59852360211,195 402.91025855574,230 403.45484580474,205 403.99753618348,195 404.54618990868,225 405.08671197407,260 406.20001517873,215 406.74785586721,245 407.29163072578,195 407.8050446733,225 409.49438245671,220 409.97851997302,215 410.52446379124,190 411.13166973258,185 411.60984454873,155 412.72396079011,205 413.78548880809,195 414.35338914186,260 415.44066870849,180 415.95733544919,185 416.70279059425,265 417.04678268288,185 417.61793580983,240 418.13053736693,245 420.335187907,280 420.85022857426,220 421.96380257573,245 422.47884388928,245 423.02532930112,210 423.59621098497,200 424.11558892524,195 424.65692338106,175 425.80709308313,240 426.29204428245,215 426.835005458,205 427.94912169939,205 428.46524684648,235 430.11961564903,245 430.85232977187,185 431.7823862619,150 433.40774943004,205 433.89703790236,185 434.47225750551,230 434.98756896958,255 435.5291748685,125 436.64329110989,225 437.16131312723,180 437.73382217711,220 438.24723612463,235 439.35918405266,0 439.91163281095,240 440.42179396529,180 441.02927134974,190 441.51395175225,205 442.08727319256,215 442.60258530292,215 443.14771479183,205 443.68850765403,240 445.01894142807,220 445.34450123744,225 446.4613280321,190 447.01242151375,215 448.60661138041,285 449.12300732431,270 449.66569770306,210 450.78089842427,215 451.29946332781,210 451.9042295127,215 452.38755463857,200 452.96792390516,240 461.70914345347,380 461.70951636459,290 462.07625473894,210 462.61924693657,230 463.16235934471,165 463.7063384319,215 464.25155775555,215 465.94390726482,200 466.45995033268,260 466.99971494255,280 467.54494977724,130 468.66099391095,205 469.17945863906,160 469.72331686944,220 470.26436889518,195 471.37768890346,180 472.46695000473,185 473.00863345883,190 474.09598864174,185 474.61249316288,190 475.36628872041,140 475.69899976295,215 476.27290092817,190 477.90153304682,165 478.96339002799,105 480.10773469034,175 480.59729395947,155 481.16785831341,160 482.28314369901,215 482.80016008429,165 483.3433875326,185 483.88719793729,205 484.97341693694,240 485.48605533274,235 486.0335321582,190 486.57765536875,155 487.14996277518,225 487.66633157476,145 488.26656918388,220 488.7747274759,190 490.05807815118,160 490.38424806124,195 490.95460430879,155 491.47025313787,210 492.01768149134,165 492.56100846879,220 493.67942449818,140 494.22387214787,225 494.73386914377,210 495.31026823182,110 495.82528304736,195 496.96924316531,265 498.02768319485,240 498.54409917383,185 499.08776480887,190 499.63030330874,170 500.20381346663,145 500.71988561768,80 501.2600580385,190 501.80743404224,185 502.41820881409,190 502.89428576283,190 503.4686503202,245 504.17623527466,220 504.61913735219,165 505.07238722857,190 505.64178566974,180 506.72869555671,215 507.27347733994,185 507.7889865697,190 508.33451740663,215 508.95800088603,185 510.56681507301,215 511.05551800378,165 511.5953349634,190 512.20293514353,245 512.68769051604,195 513.23005710194,195 513.77488864974,220 514.32040203675,185 514.89812344049,180 515.41145207733,260 516.75231960721,190 517.61437959999,160 518.31476355671,195 518.67015690195,165 519.84415349181,190 520.30682696791,215 520.84647653761,165 521.45451555076,185 521.93438106966,185 523.04821294208,180 523.56367176098,145 524.14085609516,190 524.65315971113,195 525.22837285135,260 526.31524589961,205 526.8648554923,245 527.40182811598,205 527.9166574454,250 528.51859351279,260 529.0655688148,180 529.5829109318,160 531.23812508572,170 531.724785084,225 533.07983293083,195 533.35376555463,185 534.47197541653,175 534.98947329016,140 535.52995657796,230 536.64324685676,190 537.73242523252,220 538.24399401324,170 539.35939508531,245 539.87534767214,215 540.50539942834,220 540.95898731601,190 541.50388930975,190 542.04447729704,220 543.67241852836,200 544.28038709557,190 544.82912419257,280 545.88103601549,195 546.42517344449,195 547.12997222939,190 547.48198158395,210 548.02207321813,220 548.56779923558,170 549.11016646777,240 549.6544137666,205 550.7698303497,220 551.28560262076,190 552.39859689732,215 552.9174015756,245 553.49127753539,240 554.00645521679,190 554.55080462993,185 555.69405641064,220 556.72545295163,220 557.26542502158,195 557.84371193179,160 558.35530914941,190 558.92592197533,170 559.44712698619,190 560.01782318392,215 560.58915016372,165 561.3538376989,175 561.6203780222,190 563.82462010503,190 564.34123966634,195 565.99706844501,185 567.0868905287,135 567.60549808759,225 568.74921326045,240 570.34831043064,180 570.86393728574,190 571.46412513029,210 571.94908085366,175 572.5590328944,225 573.03700800598,210 573.57970484765,190 574.15320725003,245 574.66861113401,190 575.41736689794,190 576.30376499635,190 576.84727810622,195 577.39048616574,190 577.96112742855,180 578.47791631865,260 579.02370825799,165 579.56675603682,200 580.11024329496,195 581.76942181078,190 583.39738566236,185 583.91345005789,190 585.02792305307,175 585.5725452019,260 586.08916153174,185 586.67069412591,185 587.20907243708,85 588.2917891744,155 588.83479042013,210 589.53464700168,185 589.89873298914,195 591.00895854605,250 591.55305590488,185 592.14701283764,200 592.61520953458,205 593.18698504179,190 593.70617749594,170 594.24719009779,245 596.45009952425,145 596.96472914909,60 598.07782941772,200 598.62616452042,185 599.16806060494,215 599.68459550186,215 600.81536154613,190 601.37017444459,190 601.8566631752,195 602.99652514859,170 604.2457412074,245 604.57047505418,185 605.11629413783,160 605.69061733245,180 606.24036135411,270 607.29043124168,190 607.89419825743,195 608.37941572951,165 608.92430608997,155 609.52925517581,185 610.01278000625,205 610.55619617215,200 611.10095404253,95 611.64398954179,220 612.18874805846,195 612.73243049712,230 613.84633798583,215 614.42203843105,195 614.90873332915,70 615.45374260755,170 616.11785982686,245 617.14059604028,190 617.71999198945,225 618.36241185674,60 618.71981258836,160 620.37836743133,245 621.46290994667,265 621.97991728384,105 622.55355023742,220 623.06761306322,250 623.6106091386,245 624.1573601769,215 624.70515885633,250 625.27330542777,195 626.36118927844,190 626.87436086605,205 627.41965968376,190 628.59224864724,195 629.05073866809,190 629.59899039898,160 630.13747147075,20 630.81033949866,180 631.22480791117,190 631.82690361295,40 632.53647397982,160 633.42876174727,190 633.94353097143,190 634.49116872387,170 635.03493647322,200 635.57883412748,190 636.12293019372,165 636.66779793392,235 637.21217319878,215 638.32456513017,185 638.84780144026,195 639.38720994263,240 639.93271105008,170 640.47628103374,225 641.02295774833,165 641.56306489355,160 642.13963783445,210 642.69210533524,180 643.22624784142,195 643.74225471687,205 644.28757744742,230 644.83402795943,225 645.3736342275,250 645.91996517529,195 648.38572135997,205 648.66825162091,160 650.2940503906,225 650.8428062301,230 651.38747620462,260 651.90186153068,210 653.04559738492,195 653.56419977347,230 654.10796493764,255 654.62110485689,95 655.16542389425,180 655.70900809636,220 656.28250080434,255 656.84132653666,250 658.4522431151,215 659.56888054587,220 660.62856081187,225 661.14444553793,225 661.71848759504,225 663.00061225231,260 663.34680109119,275 663.8607883007,295 665.00496169537,250 665.49429346933,290 666.03427135593,190 667.15079116136,160 667.66382702742,220 668.26786871774,245 670.47148454255,240 670.92260488316,140 671.47162311767,195 672.01255493288,190 673.18625228903,285 673.66967759034,120 674.21707750692,165 674.73044556763,190 675.30479267509,165 675.82175412545,190 676.36124599964,190 677.69116144661,190 678.02367795493,250 679.10674110535,250 680.19853502929,190 680.71307352682,215 681.25702870116,175 681.80112218223,190 682.34432959546,190 682.88984427506,185 683.43181597587,190 684.0062878179,190 684.5533109456,180 685.06754633166,190 687.26915735527,200 687.78551839934,175 688.92936024565,210 690.01422267607,205 690.50506548331,180 691.04967405998,230 691.81309098292,190 692.14006229643,185 692.68469995629,180 693.82755362045,255 694.31615766838,160 695.42896516623,190 696.5171114119,150 697.03558583442,190 697.58054276307,185 698.73068984488,150 699.78452051202,210 700.30016934109,190 700.84359972544,175 701.38873244581,210 701.93451275188,225 703.04639088025,150 703.62376974865,185 705.22122081031,190 705.9263298159,190 706.8814411506,200 707.37134295508,185 708.48443869966,185 709.00056061528,190 709.5446405242,190 710.09513876991,45 710.63631423762,230 711.17635287577,120 711.72183717959,250 712.31563577054,195 712.81142724406,210 713.38994035685,210 713.92929392431,200 715.01359407973,245 715.52781589364,195 716.07051467419,185 716.64479909122,160 717.2192851517,225 718.39330306923,185 719.36249519175,215" stroke="#333" fill="none" /></g><g><circle fill="#00FF00" r="1" cy="195" cx="0" /><circle fill="#00FF00" r="1" cy="145" cx="0.63024241266692" /><circle fill="#00FF00" r="1" cy="210" cx="1.1187133242186" /><circle fill="#00FF00" r="1" cy="225" cx="1.6315805077788" /><circle fill="#00FF00" r="1" cy="165" cx="2.1745371592821" /><circle fill="#00FF00" r="1" cy="220" cx="2.7462286483867" /><circle fill="#00FF00" r="1" cy="210" cx="3.2639759911591" /><circle fill="#00FF00" r="1" cy="190" cx="4.3797150745229" /><circle fill="#00FF00" r="1" cy="205" cx="5.4648230963245" /><circle fill="#00FF00" r="1" cy="195" cx="5.9988331124189" /><circle fill="#00FF00" r="1" cy="220" cx="7.0953242946233" /><circle fill="#00FF00" r="1" cy="235" cx="7.6103610841266" /><circle fill="#00FF00" r="1" cy="180" cx="8.7239312078406" /><circle fill="#00FF00" r="1" cy="185" cx="9.241678550613" /><circle fill="#00FF00" r="1" cy="165" cx="9.7843656978928" /><circle fill="#00FF00" r="1" cy="195" cx="10.329491309046" /><circle fill="#00FF00" r="1" cy="185" cx="10.875702046317" /><circle fill="#00FF00" r="1" cy="225" cx="11.419200291439" /><circle fill="#00FF00" r="1" cy="180" cx="12.531415138519" /><circle fill="#00FF00" r="1" cy="220" cx="13.080879961558" /><circle fill="#00FF00" r="1" cy="225" cx="13.784042978613" /><circle fill="#00FF00" r="1" cy="180" cx="14.138304664635" /><circle fill="#00FF00" r="1" cy="230" cx="14.682331577514" /><circle fill="#00FF00" r="1" cy="230" cx="15.282984106806" /><circle fill="#00FF00" r="1" cy="250" cx="16.337156016701" /><circle fill="#00FF00" r="1" cy="225" cx="16.884420211729" /><circle fill="#00FF00" r="1" cy="240" cx="17.398594846234" /><circle fill="#00FF00" r="1" cy="245" cx="17.976744096012" /><circle fill="#00FF00" r="1" cy="220" cx="19.05396087904" /><circle fill="#00FF00" r="1" cy="155" cx="19.599057407004" /><circle fill="#00FF00" r="1" cy="225" cx="20.147676878665" /><circle fill="#00FF00" r="1" cy="240" cx="20.785745254502" /><circle fill="#00FF00" r="1" cy="215" cx="21.231621572883" /><circle fill="#00FF00" r="1" cy="255" cx="22.318811951059" /><circle fill="#00FF00" r="1" cy="240" cx="22.834900259439" /><circle fill="#00FF00" r="1" cy="230" cx="23.437459353381" /><circle fill="#00FF00" r="1" cy="220" cx="23.922644510803" /><circle fill="#00FF00" r="1" cy="165" cx="24.466381884374" /><circle fill="#00FF00" r="1" cy="230" cx="25.611087824562" /><circle fill="#00FF00" r="1" cy="215" cx="26.096002185174" /><circle fill="#00FF00" r="1" cy="280" cx="26.640215876761" /><circle fill="#00FF00" r="1" cy="275" cx="27.179890651893" /><circle fill="#00FF00" r="1" cy="260" cx="27.928290954613" /><circle fill="#00FF00" r="1" cy="215" cx="28.840958282444" /><circle fill="#00FF00" r="1" cy="155" cx="29.356762221859" /><circle fill="#00FF00" r="1" cy="215" cx="29.932220307161" /><circle fill="#00FF00" r="1" cy="205" cx="30.443973281414" /><circle fill="#00FF00" r="1" cy="240" cx="32.642895725722" /><circle fill="#00FF00" r="1" cy="220" cx="33.767823804408" /><circle fill="#00FF00" r="1" cy="220" cx="34.848222288376" /><circle fill="#00FF00" r="1" cy="235" cx="35.90483589361" /><circle fill="#00FF00" r="1" cy="225" cx="36.510652304786" /><circle fill="#00FF00" r="1" cy="210" cx="36.967919539087" /><circle fill="#00FF00" r="1" cy="185" cx="38.081189136508" /><circle fill="#00FF00" r="1" cy="200" cx="39.163558168144" /><circle fill="#00FF00" r="1" cy="245" cx="39.682901208585" /><circle fill="#00FF00" r="1" cy="215" cx="40.22718340724" /><circle fill="#00FF00" r="1" cy="185" cx="41.339636736474" /><circle fill="#00FF00" r="1" cy="215" cx="42.074214122332" /><circle fill="#00FF00" r="1" cy="235" cx="42.459918614051" /><circle fill="#00FF00" r="1" cy="160" cx="42.943751726304" /><circle fill="#00FF00" r="1" cy="205" cx="43.520294291431" /><circle fill="#00FF00" r="1" cy="225" cx="44.630309156792" /><circle fill="#00FF00" r="1" cy="230" cx="45.121464123595" /><circle fill="#00FF00" r="1" cy="225" cx="45.662190417604" /><circle fill="#00FF00" r="1" cy="220" cx="46.20492668316" /><circle fill="#00FF00" r="1" cy="245" cx="46.750249413709" /><circle fill="#00FF00" r="1" cy="185" cx="47.884347098924" /><circle fill="#00FF00" r="1" cy="165" cx="48.533764381629" /><circle fill="#00FF00" r="1" cy="220" cx="48.924870591094" /><circle fill="#00FF00" r="1" cy="260" cx="49.529897232099" /><circle fill="#00FF00" r="1" cy="210" cx="50.016735607275" /><circle fill="#00FF00" r="1" cy="205" cx="51.156590471442" /><circle fill="#00FF00" r="1" cy="190" cx="51.674326180938" /><circle fill="#00FF00" r="1" cy="190" cx="52.190435170698" /><circle fill="#00FF00" r="1" cy="190" cx="52.736091388487" /><circle fill="#00FF00" r="1" cy="270" cx="53.275782320947" /><circle fill="#00FF00" r="1" cy="190" cx="54.424851385866" /><circle fill="#00FF00" r="1" cy="210" cx="54.908700655446" /><circle fill="#00FF00" r="1" cy="195" cx="55.496912688821" /><circle fill="#00FF00" r="1" cy="190" cx="56.346713147755" /><circle fill="#00FF00" r="1" cy="225" cx="57.657884155895" /><circle fill="#00FF00" r="1" cy="190" cx="58.171281299799" /><circle fill="#00FF00" r="1" cy="200" cx="58.745126237519" /><circle fill="#00FF00" r="1" cy="170" cx="59.260420251677" /><circle fill="#00FF00" r="1" cy="190" cx="59.803363331025" /><circle fill="#00FF00" r="1" cy="200" cx="60.916375057499" /><circle fill="#00FF00" r="1" cy="185" cx="61.431940514759" /><circle fill="#00FF00" r="1" cy="185" cx="62.008501822386" /><circle fill="#00FF00" r="1" cy="185" cx="62.52325941327" /><circle fill="#00FF00" r="1" cy="185" cx="63.067291496494" /><circle fill="#00FF00" r="1" cy="195" cx="63.611860649287" /><circle fill="#00FF00" r="1" cy="220" cx="64.154534224411" /><circle fill="#00FF00" r="1" cy="215" cx="64.699526699185" /><circle fill="#00FF00" r="1" cy="130" cx="65.244384098701" /><circle fill="#00FF00" r="1" cy="215" cx="65.789785030716" /><circle fill="#00FF00" r="1" cy="205" cx="66.330306449811" /><circle fill="#00FF00" r="1" cy="145" cx="67.989554118987" /><circle fill="#00FF00" r="1" cy="185" cx="69.078460405348" /><circle fill="#00FF00" r="1" cy="185" cx="69.620337747371" /><circle fill="#00FF00" r="1" cy="220" cx="70.890864028628" /><circle fill="#00FF00" r="1" cy="60" cx="71.224555497804" /><circle fill="#00FF00" r="1" cy="190" cx="71.768058913271" /><circle fill="#00FF00" r="1" cy="215" cx="72.366319511793" /><circle fill="#00FF00" r="1" cy="225" cx="72.858047740578" /><circle fill="#00FF00" r="1" cy="185" cx="73.398840602776" /><circle fill="#00FF00" r="1" cy="185" cx="74.002522307836" /><circle fill="#00FF00" r="1" cy="215" cx="74.485576636901" /><circle fill="#00FF00" r="1" cy="180" cx="75.626258109945" /><circle fill="#00FF00" r="1" cy="195" cx="76.142654053842" /><circle fill="#00FF00" r="1" cy="165" cx="77.229934913051" /><circle fill="#00FF00" r="1" cy="255" cx="77.746872450567" /><circle fill="#00FF00" r="1" cy="270" cx="78.29118954905" /><circle fill="#00FF00" r="1" cy="160" cx="78.836591127357" /><circle fill="#00FF00" r="1" cy="205" cx="79.381720616269" /><circle fill="#00FF00" r="1" cy="190" cx="80.587189095015" /><circle fill="#00FF00" r="1" cy="215" cx="81.009793045091" /><circle fill="#00FF00" r="1" cy="170" cx="81.557091493653" /><circle fill="#00FF00" r="1" cy="215" cx="82.132040299991" /><circle fill="#00FF00" r="1" cy="185" cx="82.674459235633" /><circle fill="#00FF00" r="1" cy="230" cx="83.189229752378" /><circle fill="#00FF00" r="1" cy="250" cx="83.732190927933" /><circle fill="#00FF00" r="1" cy="190" cx="84.276507380123" /><circle fill="#00FF00" r="1" cy="190" cx="85.004342636342" /><circle fill="#00FF00" r="1" cy="185" cx="85.368665167079" /><circle fill="#00FF00" r="1" cy="250" cx="85.912711468752" /><circle fill="#00FF00" r="1" cy="195" cx="86.454588164482" /><circle fill="#00FF00" r="1" cy="180" cx="87.567349129233" /><circle fill="#00FF00" r="1" cy="150" cx="88.167507890595" /><circle fill="#00FF00" r="1" cy="200" cx="88.614776324317" /><circle fill="#00FF00" r="1" cy="145" cx="89.22523441255" /><circle fill="#00FF00" r="1" cy="210" cx="90.316580455371" /><circle fill="#00FF00" r="1" cy="185" cx="91.37268672052" /><circle fill="#00FF00" r="1" cy="180" cx="91.887727387782" /><circle fill="#00FF00" r="1" cy="195" cx="92.462404104724" /><circle fill="#00FF00" r="1" cy="110" cx="93.549413520831" /><circle fill="#00FF00" r="1" cy="240" cx="94.064724984903" /><circle fill="#00FF00" r="1" cy="200" cx="94.61229552286" /><circle fill="#00FF00" r="1" cy="240" cx="95.155798938327" /><circle fill="#00FF00" r="1" cy="210" cx="95.699302353795" /><circle fill="#00FF00" r="1" cy="215" cx="96.813960835092" /><circle fill="#00FF00" r="1" cy="165" cx="97.331170462004" /><circle fill="#00FF00" r="1" cy="175" cx="97.873860840749" /><circle fill="#00FF00" r="1" cy="215" cx="98.449080443897" /><circle fill="#00FF00" r="1" cy="215" cx="99.152789578624" /><circle fill="#00FF00" r="1" cy="210" cx="99.505184770167" /><circle fill="#00FF00" r="1" cy="225" cx="100.05031490537" /><circle fill="#00FF00" r="1" cy="200" cx="101.31352320984" /><circle fill="#00FF00" r="1" cy="195" cx="101.67757494376" /><circle fill="#00FF00" r="1" cy="185" cx="102.22216283906" /><circle fill="#00FF00" r="1" cy="200" cx="102.76702153116" /><circle fill="#00FF00" r="1" cy="170" cx="103.36690884942" /><circle fill="#00FF00" r="1" cy="115" cx="103.88466071624" /><circle fill="#00FF00" r="1" cy="180" cx="104.39780386696" /><circle fill="#00FF00" r="1" cy="180" cx="105.51381827118" /><circle fill="#00FF00" r="1" cy="165" cx="106.02940053206" /><circle fill="#00FF00" r="1" cy="220" cx="106.57344683374" /><circle fill="#00FF00" r="1" cy="195" cx="107.11803472903" /><circle fill="#00FF00" r="1" cy="225" cx="108.26034227552" /><circle fill="#00FF00" r="1" cy="165" cx="108.75044507715" /><circle fill="#00FF00" r="1" cy="260" cx="109.89383710346" /><circle fill="#00FF00" r="1" cy="235" cx="110.95075705163" /><circle fill="#00FF00" r="1" cy="160" cx="111.46932195517" /><circle fill="#00FF00" r="1" cy="190" cx="112.00930113436" /><circle fill="#00FF00" r="1" cy="225" cx="113.87673532267" /><circle fill="#00FF00" r="1" cy="250" cx="114.73007746781" /><circle fill="#00FF00" r="1" cy="225" cx="115.27276784655" /><circle fill="#00FF00" r="1" cy="165" cx="116.38607105121" /><circle fill="#00FF00" r="1" cy="185" cx="116.90273843821" /><circle fill="#00FF00" r="1" cy="110" cx="117.5080475093" /><circle fill="#00FF00" r="1" cy="190" cx="117.99299935492" /><circle fill="#00FF00" r="1" cy="215" cx="118.53677356719" /><circle fill="#00FF00" r="1" cy="245" cx="119.65061836548" /><circle fill="#00FF00" r="1" cy="210" cx="120.24372930056" /><circle fill="#00FF00" r="1" cy="195" cx="120.71295812759" /><circle fill="#00FF00" r="1" cy="225" cx="121.25808890909" /><circle fill="#00FF00" r="1" cy="195" cx="121.83059731268" /><circle fill="#00FF00" r="1" cy="190" cx="122.34401190649" /><circle fill="#00FF00" r="1" cy="195" cx="122.89022587523" /><circle fill="#00FF00" r="1" cy="185" cx="123.43427153061" /><circle fill="#00FF00" r="1" cy="190" cx="124.0073228204" /><circle fill="#00FF00" r="1" cy="220" cx="124.5199237312" /><circle fill="#00FF00" r="1" cy="195" cx="125.0688488995" /><circle fill="#00FF00" r="1" cy="160" cx="126.72375994196" /><circle fill="#00FF00" r="1" cy="200" cx="127.24042732896" /><circle fill="#00FF00" r="1" cy="225" cx="127.96555138562" /><circle fill="#00FF00" r="1" cy="215" cx="128.3274341599" /><circle fill="#00FF00" r="1" cy="190" cx="129.44073801085" /><circle fill="#00FF00" r="1" cy="175" cx="129.95659171484" /><circle fill="#00FF00" r="1" cy="205" cx="130.50172185004" /><circle fill="#00FF00" r="1" cy="225" cx="131.04712278206" /><circle fill="#00FF00" r="1" cy="190" cx="131.61285480247" /><circle fill="#00FF00" r="1" cy="205" cx="132.7047430852" /><circle fill="#00FF00" r="1" cy="220" cx="134.33796776263" /><circle fill="#00FF00" r="1" cy="200" cx="134.85219603947" /><circle fill="#00FF00" r="1" cy="190" cx="135.99884085896" /><circle fill="#00FF00" r="1" cy="205" cx="136.48921381111" /><circle fill="#00FF00" r="1" cy="190" cx="137.03054955951" /><circle fill="#00FF00" r="1" cy="220" cx="137.57432377179" /><circle fill="#00FF00" r="1" cy="160" cx="138.17665020022" /><circle fill="#00FF00" r="1" cy="255" cx="139.23275711166" /><circle fill="#00FF00" r="1" cy="205" cx="139.74373130272" /><circle fill="#00FF00" r="1" cy="195" cx="140.28723536448" /><circle fill="#00FF00" r="1" cy="205" cx="140.83019654004" /><circle fill="#00FF00" r="1" cy="185" cx="141.3734291587" /><circle fill="#00FF00" r="1" cy="255" cx="142.65642566535" /><circle fill="#00FF00" r="1" cy="190" cx="143.00285751045" /><circle fill="#00FF00" r="1" cy="200" cx="143.57617959705" /><circle fill="#00FF00" r="1" cy="245" cx="144.08823826794" /><circle fill="#00FF00" r="1" cy="235" cx="144.63879015597" /><circle fill="#00FF00" r="1" cy="235" cx="145.19964266347" /><circle fill="#00FF00" r="1" cy="255" cx="146.29234398292" /><circle fill="#00FF00" r="1" cy="170" cx="147.40808759034" /><circle fill="#00FF00" r="1" cy="145" cx="147.92258537139" /><circle fill="#00FF00" r="1" cy="210" cx="148.43681300193" /><circle fill="#00FF00" r="1" cy="125" cx="148.98031706369" /><circle fill="#00FF00" r="1" cy="210" cx="149.52436271907" /><circle fill="#00FF00" r="1" cy="170" cx="150.06759533773" /><circle fill="#00FF00" r="1" cy="165" cx="151.17954326576" /><circle fill="#00FF00" r="1" cy="195" cx="152.27061786548" /><circle fill="#00FF00" r="1" cy="185" cx="153.32780925675" /><circle fill="#00FF00" r="1" cy="225" cx="153.87158346902" /><circle fill="#00FF00" r="1" cy="225" cx="154.41562977069" /><circle fill="#00FF00" r="1" cy="240" cx="155.5587510002" /><circle fill="#00FF00" r="1" cy="85" cx="156.81491083209" /><circle fill="#00FF00" r="1" cy="220" cx="157.12989793261" /><circle fill="#00FF00" r="1" cy="240" cx="157.67557030773" /><circle fill="#00FF00" r="1" cy="210" cx="158.22151347965" /><circle fill="#00FF00" r="1" cy="175" cx="158.79212501298" /><circle fill="#00FF00" r="1" cy="210" cx="159.87859154289" /><circle fill="#00FF00" r="1" cy="225" cx="160.39119309998" /><circle fill="#00FF00" r="1" cy="230" cx="160.93632258889" /><circle fill="#00FF00" r="1" cy="210" cx="162.07863078167" /><circle fill="#00FF00" r="1" cy="205" cx="162.57035965675" /><circle fill="#00FF00" r="1" cy="220" cx="163.14449413378" /><circle fill="#00FF00" r="1" cy="215" cx="164.2277085168" /><circle fill="#00FF00" r="1" cy="190" cx="165.346432828" /><circle fill="#00FF00" r="1" cy="240" cx="165.86445549163" /><circle fill="#00FF00" r="1" cy="205" cx="166.41039930985" /><circle fill="#00FF00" r="1" cy="225" cx="166.91839150454" /><circle fill="#00FF00" r="1" cy="190" cx="167.49225583106" /><circle fill="#00FF00" r="1" cy="250" cx="168.00539898177" /><circle fill="#00FF00" r="1" cy="115" cx="168.54998752336" /><circle fill="#00FF00" r="1" cy="245" cx="169.650278909" /><circle fill="#00FF00" r="1" cy="190" cx="170.21031773348" /><circle fill="#00FF00" r="1" cy="215" cx="172.05064445022" /><circle fill="#00FF00" r="1" cy="250" cx="172.40520860142" /><circle fill="#00FF00" r="1" cy="210" cx="173.98964073483" /><circle fill="#00FF00" r="1" cy="200" cx="175.10077497984" /><circle fill="#00FF00" r="1" cy="205" cx="175.61690012693" /><circle fill="#00FF00" r="1" cy="230" cx="176.15850602585" /><circle fill="#00FF00" r="1" cy="200" cx="176.70499208398" /><circle fill="#00FF00" r="1" cy="285" cx="177.24903773936" /><circle fill="#00FF00" r="1" cy="180" cx="177.79118587819" /><circle fill="#00FF00" r="1" cy="210" cx="178.37101355116" /><circle fill="#00FF00" r="1" cy="220" cx="178.88253062843" /><circle fill="#00FF00" r="1" cy="230" cx="179.45612351184" /><circle fill="#00FF00" r="1" cy="230" cx="179.99853792343" /><circle fill="#00FF00" r="1" cy="225" cx="180.54637796561" /><circle fill="#00FF00" r="1" cy="215" cx="181.63094697897" /><circle fill="#00FF00" r="1" cy="245" cx="182.14978332561" /><circle fill="#00FF00" r="1" cy="215" cx="182.69138922454" /><circle fill="#00FF00" r="1" cy="245" cx="183.23597711983" /><circle fill="#00FF00" r="1" cy="240" cx="184.89359871556" /><circle fill="#00FF00" r="1" cy="270" cx="186.14135609084" /><circle fill="#00FF00" r="1" cy="225" cx="186.52248547369" /><circle fill="#00FF00" r="1" cy="285" cx="187.04267645068" /><circle fill="#00FF00" r="1" cy="280" cx="188.15706413517" /><circle fill="#00FF00" r="1" cy="225" cx="188.67237559924" /><circle fill="#00FF00" r="1" cy="220" cx="189.21750638074" /><circle fill="#00FF00" r="1" cy="220" cx="189.76317810956" /><circle fill="#00FF00" r="1" cy="225" cx="190.30315793504" /><circle fill="#00FF00" r="1" cy="240" cx="190.84910110696" /><circle fill="#00FF00" r="1" cy="175" cx="193.07652249189" /><circle fill="#00FF00" r="1" cy="235" cx="193.59671411518" /><circle fill="#00FF00" r="1" cy="220" cx="195.22316176314" /><circle fill="#00FF00" r="1" cy="280" cx="195.74037074376" /><circle fill="#00FF00" r="1" cy="230" cx="196.28631456198" /><circle fill="#00FF00" r="1" cy="245" cx="196.82656518426" /><circle fill="#00FF00" r="1" cy="210" cx="197.36952700611" /><circle fill="#00FF00" r="1" cy="195" cx="198.48581220715" /><circle fill="#00FF00" r="1" cy="250" cx="199.0325684158" /><circle fill="#00FF00" r="1" cy="215" cx="199.54733828625" /><circle fill="#00FF00" r="1" cy="180" cx="200.31718905702" /><circle fill="#00FF00" r="1" cy="225" cx="201.181103911" /><circle fill="#00FF00" r="1" cy="225" cx="201.7218967732" /><circle fill="#00FF00" r="1" cy="225" cx="202.86664407615" /><circle fill="#00FF00" r="1" cy="215" cx="203.35430647503" /><circle fill="#00FF00" r="1" cy="230" cx="204.46679664297" /><circle fill="#00FF00" r="1" cy="190" cx="205.55787188898" /><circle fill="#00FF00" r="1" cy="200" cx="206.10544178065" /><circle fill="#00FF00" r="1" cy="225" cx="206.64758927319" /><circle fill="#00FF00" r="1" cy="220" cx="207.16235978993" /><circle fill="#00FF00" r="1" cy="220" cx="207.70721848203" /><circle fill="#00FF00" r="1" cy="155" cx="208.25072254379" /><circle fill="#00FF00" r="1" cy="225" cx="208.79530979279" /><circle fill="#00FF00" r="1" cy="250" cx="209.34071072481" /><circle fill="#00FF00" r="1" cy="205" cx="209.8815042333" /><circle fill="#00FF00" r="1" cy="220" cx="210.42392316894" /><circle fill="#00FF00" r="1" cy="215" cx="211.60363945275" /><circle fill="#00FF00" r="1" cy="220" cx="212.11624036355" /><circle fill="#00FF00" r="1" cy="170" cx="212.60119156287" /><circle fill="#00FF00" r="1" cy="195" cx="214.47838413073" /><circle fill="#00FF00" r="1" cy="270" cx="214.77412526897" /><circle fill="#00FF00" r="1" cy="220" cx="215.31844236745" /><circle fill="#00FF00" r="1" cy="225" cx="215.86465633619" /><circle fill="#00FF00" r="1" cy="195" cx="216.97416450776" /><circle fill="#00FF00" r="1" cy="235" cx="218.03704780237" /><circle fill="#00FF00" r="1" cy="195" cx="218.58217793758" /><circle fill="#00FF00" r="1" cy="220" cx="219.12595214985" /><circle fill="#00FF00" r="1" cy="225" cx="220.26663426919" /><circle fill="#00FF00" r="1" cy="230" cx="221.3213852577" /><circle fill="#00FF00" r="1" cy="225" cx="221.84022095806" /><circle fill="#00FF00" r="1" cy="220" cx="222.38589268688" /><circle fill="#00FF00" r="1" cy="235" cx="222.96057005012" /><circle fill="#00FF00" r="1" cy="210" cx="223.52819958708" /><circle fill="#00FF00" r="1" cy="185" cx="224.58918471885" /><circle fill="#00FF00" r="1" cy="225" cx="225.10585275215" /><circle fill="#00FF00" r="1" cy="255" cx="225.64908472451" /><circle fill="#00FF00" r="1" cy="205" cx="226.7632009659" /><circle fill="#00FF00" r="1" cy="190" cx="227.28013914971" /><circle fill="#00FF00" r="1" cy="220" cx="227.824727045" /><circle fill="#00FF00" r="1" cy="180" cx="228.56991010066" /><circle fill="#00FF00" r="1" cy="200" cx="230.02747812964" /><circle fill="#00FF00" r="1" cy="190" cx="231.11204778929" /><circle fill="#00FF00" r="1" cy="210" cx="231.62871453" /><circle fill="#00FF00" r="1" cy="210" cx="232.17113411193" /><circle fill="#00FF00" r="1" cy="245" cx="232.71409593378" /><circle fill="#00FF00" r="1" cy="235" cx="233.25814094287" /><circle fill="#00FF00" r="1" cy="230" cx="233.82956551292" /><circle fill="#00FF00" r="1" cy="260" cx="235.45926595406" /><circle fill="#00FF00" r="1" cy="195" cx="236.54519153664" /><circle fill="#00FF00" r="1" cy="185" cx="237.0599607608" /><circle fill="#00FF00" r="1" cy="195" cx="238.17841427519" /><circle fill="#00FF00" r="1" cy="180" cx="238.69481021909" /><circle fill="#00FF00" r="1" cy="190" cx="239.80919790357" /><circle fill="#00FF00" r="1" cy="195" cx="240.3266783273" /><circle fill="#00FF00" r="1" cy="185" cx="240.87099477949" /><circle fill="#00FF00" r="1" cy="255" cx="241.41368580452" /><circle fill="#00FF00" r="1" cy="225" cx="241.99459731102" /><circle fill="#00FF00" r="1" cy="185" cx="243.31283294906" /><circle fill="#00FF00" r="1" cy="180" cx="244.16210861799" /><circle fill="#00FF00" r="1" cy="165" cx="244.6793188912" /><circle fill="#00FF00" r="1" cy="215" cx="245.22173782684" /><circle fill="#00FF00" r="1" cy="245" cx="246.34046278433" /><circle fill="#00FF00" r="1" cy="185" cx="247.94197192038" /><circle fill="#00FF00" r="1" cy="210" cx="248.48737285239" /><circle fill="#00FF00" r="1" cy="165" cx="249.60013381714" /><circle fill="#00FF00" r="1" cy="160" cx="250.17426894046" /><circle fill="#00FF00" r="1" cy="195" cx="250.67304499552" /><circle fill="#00FF00" r="1" cy="190" cx="251.20624779153" /><circle fill="#00FF00" r="1" cy="200" cx="251.74920961338" /><circle fill="#00FF00" r="1" cy="185" cx="252.29379686238" /><circle fill="#00FF00" r="1" cy="185" cx="252.83702948104" /><circle fill="#00FF00" r="1" cy="245" cx="253.38215961624" /><circle fill="#00FF00" r="1" cy="255" cx="253.92566238542" /><circle fill="#00FF00" r="1" cy="250" cx="254.46916644718" /><circle fill="#00FF00" r="1" cy="190" cx="255.61282991659" /><circle fill="#00FF00" r="1" cy="240" cx="256.1010339091" /><circle fill="#00FF00" r="1" cy="190" cx="256.64535165387" /><circle fill="#00FF00" r="1" cy="195" cx="257.97876742428" /><circle fill="#00FF00" r="1" cy="140" cx="258.27667687587" /><circle fill="#00FF00" r="1" cy="190" cx="259.38970928373" /><circle fill="#00FF00" r="1" cy="160" cx="259.90610522762" /><circle fill="#00FF00" r="1" cy="165" cx="260.45042167981" /><circle fill="#00FF00" r="1" cy="180" cx="260.99229966813" /><circle fill="#00FF00" r="1" cy="240" cx="261.54095339333" /><circle fill="#00FF00" r="1" cy="240" cx="262.08174560923" /><circle fill="#00FF00" r="1" cy="210" cx="263.89306733786" /><circle fill="#00FF00" r="1" cy="185" cx="264.31268993786" /><circle fill="#00FF00" r="1" cy="115" cx="264.83125419511" /><circle fill="#00FF00" r="1" cy="170" cx="266.97382957533" /><circle fill="#00FF00" r="1" cy="170" cx="267.51977274726" /><circle fill="#00FF00" r="1" cy="225" cx="268.05948112963" /><circle fill="#00FF00" r="1" cy="190" cx="268.60515285846" /><circle fill="#00FF00" r="1" cy="210" cx="269.15082523357" /><circle fill="#00FF00" r="1" cy="210" cx="270.27198930124" /><circle fill="#00FF00" r="1" cy="175" cx="270.87052134286" /><circle fill="#00FF00" r="1" cy="160" cx="271.38420608719" /><circle fill="#00FF00" r="1" cy="255" cx="272.62518578671" /><circle fill="#00FF00" r="1" cy="145" cx="273.52379817846" /><circle fill="#00FF00" r="1" cy="200" cx="274.13371467307" /><circle fill="#00FF00" r="1" cy="180" cx="274.58776336773" /><circle fill="#00FF00" r="1" cy="190" cx="275.73223987386" /><circle fill="#00FF00" r="1" cy="215" cx="276.21637868275" /><circle fill="#00FF00" r="1" cy="175" cx="276.76340568821" /><circle fill="#00FF00" r="1" cy="245" cx="277.36383524638" /><circle fill="#00FF00" r="1" cy="175" cx="279.53541496843" /><circle fill="#00FF00" r="1" cy="220" cx="280.01982392784" /><circle fill="#00FF00" r="1" cy="185" cx="280.56197206667" /><circle fill="#00FF00" r="1" cy="220" cx="281.11008419825" /><circle fill="#00FF00" r="1" cy="215" cx="282.22365819972" /><circle fill="#00FF00" r="1" cy="200" cx="282.77692064103" /><circle fill="#00FF00" r="1" cy="215" cx="283.89320584206" /><circle fill="#00FF00" r="1" cy="180" cx="284.37273528855" /><circle fill="#00FF00" r="1" cy="200" cx="284.91542566729" /><circle fill="#00FF00" r="1" cy="180" cx="285.49118686406" /><circle fill="#00FF00" r="1" cy="190" cx="287.88911458771" /><circle fill="#00FF00" r="1" cy="190" cx="288.74625176593" /><circle fill="#00FF00" r="1" cy="190" cx="289.89723450473" /><circle fill="#00FF00" r="1" cy="165" cx="290.35345215903" /><circle fill="#00FF00" r="1" cy="195" cx="290.89641333458" /><circle fill="#00FF00" r="1" cy="180" cx="291.44208506341" /><circle fill="#00FF00" r="1" cy="240" cx="291.98775808482" /><circle fill="#00FF00" r="1" cy="225" cx="292.53099005718" /><circle fill="#00FF00" r="1" cy="190" cx="293.16205067692" /><circle fill="#00FF00" r="1" cy="155" cx="293.62043664458" /><circle fill="#00FF00" r="1" cy="180" cx="294.16556742608" /><circle fill="#00FF00" r="1" cy="240" cx="295.27859918764" /><circle fill="#00FF00" r="1" cy="180" cx="295.79445289162" /><circle fill="#00FF00" r="1" cy="195" cx="296.34175134018" /><circle fill="#00FF00" r="1" cy="155" cx="296.88444171893" /><circle fill="#00FF00" r="1" cy="215" cx="297.4282165775" /><circle fill="#00FF00" r="1" cy="210" cx="298.00235170082" /><circle fill="#00FF00" r="1" cy="245" cx="298.54449919336" /><circle fill="#00FF00" r="1" cy="200" cx="299.06469081664" /><circle fill="#00FF00" r="1" cy="225" cx="299.66268061836" /><circle fill="#00FF00" r="1" cy="180" cx="300.14898709431" /><circle fill="#00FF00" r="1" cy="195" cx="300.72339366073" /><circle fill="#00FF00" r="1" cy="195" cx="301.23789208808" /><circle fill="#00FF00" r="1" cy="185" cx="302.54907989984" /><circle fill="#00FF00" r="1" cy="210" cx="303.46639601396" /><circle fill="#00FF00" r="1" cy="165" cx="303.95541368947" /><circle fill="#00FF00" r="1" cy="185" cx="305.10070323233" /><circle fill="#00FF00" r="1" cy="205" cx="306.15626790386" /><circle fill="#00FF00" r="1" cy="220" cx="306.67564584413" /><circle fill="#00FF00" r="1" cy="210" cx="307.22023309313" /><circle fill="#00FF00" r="1" cy="190" cx="308.33353629779" /><circle fill="#00FF00" r="1" cy="170" cx="308.84911920497" /><circle fill="#00FF00" r="1" cy="230" cx="309.39235117733" /><circle fill="#00FF00" r="1" cy="205" cx="309.93558379599" /><circle fill="#00FF00" r="1" cy="220" cx="310.47935865456" /><circle fill="#00FF00" r="1" cy="230" cx="311.6281724337" /><circle fill="#00FF00" r="1" cy="215" cx="312.1082441201" /><circle fill="#00FF00" r="1" cy="245" cx="312.6812947636" /><circle fill="#00FF00" r="1" cy="240" cx="313.1938963207" /><circle fill="#00FF00" r="1" cy="195" cx="313.76992896057" /><circle fill="#00FF00" r="1" cy="190" cx="314.28415594481" /><circle fill="#00FF00" r="1" cy="195" cx="315.3863454933" /><circle fill="#00FF00" r="1" cy="205" cx="315.94502904114" /><circle fill="#00FF00" r="1" cy="235" cx="316.6579543155" /><circle fill="#00FF00" r="1" cy="215" cx="317.00194705043" /><circle fill="#00FF00" r="1" cy="210" cx="317.57743745038" /><circle fill="#00FF00" r="1" cy="210" cx="318.086785568" /><circle fill="#00FF00" r="1" cy="190" cx="319.23451486732" /><circle fill="#00FF00" r="1" cy="155" cx="319.72109343267" /><circle fill="#00FF00" r="1" cy="220" cx="320.26595212477" /><circle fill="#00FF00" r="1" cy="205" cx="321.37952612625" /><circle fill="#00FF00" r="1" cy="165" cx="321.8945674398" /><circle fill="#00FF00" r="1" cy="220" cx="322.47005719347" /><circle fill="#00FF00" r="1" cy="220" cx="323.04663207325" /><circle fill="#00FF00" r="1" cy="240" cx="323.52941431292" /><circle fill="#00FF00" r="1" cy="195" cx="324.64651255067" /><circle fill="#00FF00" r="1" cy="180" cx="325.21359984772" /><circle fill="#00FF00" r="1" cy="160" cx="325.70831007288" /><circle fill="#00FF00" r="1" cy="130" cx="326.31388929449" /><circle fill="#00FF00" r="1" cy="230" cx="327.36294837965" /><circle fill="#00FF00" r="1" cy="170" cx="327.91078906813" /><circle fill="#00FF00" r="1" cy="190" cx="328.42555829228" /><circle fill="#00FF00" r="1" cy="210" cx="329.54130125341" /><circle fill="#00FF00" r="1" cy="200" cx="330.05607112386" /><circle fill="#00FF00" r="1" cy="220" cx="331.37349372517" /><circle fill="#00FF00" r="1" cy="205" cx="331.71613118346" /><circle fill="#00FF00" r="1" cy="215" cx="332.25990539574" /><circle fill="#00FF00" r="1" cy="200" cx="332.77630133964" /><circle fill="#00FF00" r="1" cy="195" cx="333.3160103683" /><circle fill="#00FF00" r="1" cy="215" cx="333.86032682049" /><circle fill="#00FF00" r="1" cy="170" cx="334.46427996866" /><circle fill="#00FF00" r="1" cy="140" cx="334.97498400921" /><circle fill="#00FF00" r="1" cy="225" cx="335.48812715992" /><circle fill="#00FF00" r="1" cy="185" cx="336.03271440892" /><circle fill="#00FF00" r="1" cy="190" cx="336.57594702758" /><circle fill="#00FF00" r="1" cy="220" cx="337.11945108934" /><circle fill="#00FF00" r="1" cy="265" cx="337.66241226489" /><circle fill="#00FF00" r="1" cy="215" cx="338.20320512709" /><circle fill="#00FF00" r="1" cy="260" cx="339.35283258925" /><circle fill="#00FF00" r="1" cy="220" cx="339.83534403211" /><circle fill="#00FF00" r="1" cy="185" cx="340.37640769112" /><circle fill="#00FF00" r="1" cy="215" cx="341.4905239325" /><circle fill="#00FF00" r="1" cy="200" cx="342.03782302736" /><circle fill="#00FF00" r="1" cy="205" cx="342.55069473497" /><circle fill="#00FF00" r="1" cy="220" cx="343.09446959354" /><circle fill="#00FF00" r="1" cy="170" cx="343.66860471686" /><circle fill="#00FF00" r="1" cy="185" cx="344.21156653871" /><circle fill="#00FF00" r="1" cy="195" cx="345.49645991562" /><circle fill="#00FF00" r="1" cy="190" cx="345.8141582157" /><circle fill="#00FF00" r="1" cy="150" cx="346.38476910274" /><circle fill="#00FF00" r="1" cy="185" cx="346.89926753009" /><circle fill="#00FF00" r="1" cy="240" cx="349.12831563475" /><circle fill="#00FF00" r="1" cy="190" cx="349.61624883044" /><circle fill="#00FF00" r="1" cy="250" cx="350.72684083554" /><circle fill="#00FF00" r="1" cy="185" cx="351.24513494228" /><circle fill="#00FF00" r="1" cy="255" cx="351.7908073174" /><circle fill="#00FF00" r="1" cy="175" cx="352.33620760312" /><circle fill="#00FF00" r="1" cy="240" cx="352.88215142134" /><circle fill="#00FF00" r="1" cy="205" cx="354.57121776165" /><circle fill="#00FF00" r="1" cy="165" cx="355.62379979051" /><circle fill="#00FF00" r="1" cy="220" cx="356.17055664545" /><circle fill="#00FF00" r="1" cy="220" cx="357.28467288684" /><circle fill="#00FF00" r="1" cy="215" cx="358.36761582675" /><circle fill="#00FF00" r="1" cy="190" cx="358.92060682495" /><circle fill="#00FF00" r="1" cy="250" cx="359.5844674659" /><circle fill="#00FF00" r="1" cy="250" cx="360.51804819221" /><circle fill="#00FF00" r="1" cy="200" cx="361.60722592168" /><circle fill="#00FF00" r="1" cy="180" cx="362.12443554859" /><circle fill="#00FF00" r="1" cy="195" cx="362.72811725365" /><circle fill="#00FF00" r="1" cy="240" cx="363.21225541624" /><circle fill="#00FF00" r="1" cy="235" cx="363.7552165918" /><circle fill="#00FF00" r="1" cy="205" cx="364.35998342298" /><circle fill="#00FF00" r="1" cy="205" cx="364.84303710575" /><circle fill="#00FF00" r="1" cy="260" cx="365.39169083094" /><circle fill="#00FF00" r="1" cy="215" cx="365.93682161244" /><circle fill="#00FF00" r="1" cy="235" cx="366.47761447464" /><circle fill="#00FF00" r="1" cy="160" cx="367.59063848068" /><circle fill="#00FF00" r="1" cy="220" cx="368.69851928622" /><circle fill="#00FF00" r="1" cy="170" cx="369.2263003294" /><circle fill="#00FF00" r="1" cy="215" cx="370.40655885312" /><circle fill="#00FF00" r="1" cy="215" cx="370.82807832337" /><circle fill="#00FF00" r="1" cy="165" cx="371.37564756875" /><circle fill="#00FF00" r="1" cy="210" cx="371.94598830527" /><circle fill="#00FF00" r="1" cy="235" cx="372.46075752943" /><circle fill="#00FF00" r="1" cy="245" cx="373.76110248182" /><circle fill="#00FF00" r="1" cy="220" cx="374.12190142256" /><circle fill="#00FF00" r="1" cy="205" cx="374.63585825629" /><circle fill="#00FF00" r="1" cy="180" cx="375.17881943185" /><circle fill="#00FF00" r="1" cy="220" cx="375.78331481992" /><circle fill="#00FF00" r="1" cy="230" cx="376.26745233623" /><circle fill="#00FF00" r="1" cy="220" cx="376.80932967825" /><circle fill="#00FF00" r="1" cy="190" cx="377.35527349647" /><circle fill="#00FF00" r="1" cy="230" cx="377.89850546883" /><circle fill="#00FF00" r="1" cy="265" cx="378.44146664439" /><circle fill="#00FF00" r="1" cy="230" cx="379.55612512569" /><circle fill="#00FF00" r="1" cy="105" cx="380.64313454179" /><circle fill="#00FF00" r="1" cy="245" cx="381.15871744897" /><circle fill="#00FF00" r="1" cy="190" cx="381.70438917779" /><circle fill="#00FF00" r="1" cy="245" cx="382.2454528368" /><circle fill="#00FF00" r="1" cy="250" cx="382.82799170933" /><circle fill="#00FF00" r="1" cy="160" cx="383.33218951722" /><circle fill="#00FF00" r="1" cy="225" cx="383.87786124604" /><circle fill="#00FF00" r="1" cy="235" cx="384.4208224216" /><circle fill="#00FF00" r="1" cy="215" cx="384.96568175999" /><circle fill="#00FF00" r="1" cy="205" cx="385.50972741537" /><circle fill="#00FF00" r="1" cy="210" cx="386.05268859093" /><circle fill="#00FF00" r="1" cy="210" cx="386.62438395779" /><circle fill="#00FF00" r="1" cy="185" cx="387.90710837505" /><circle fill="#00FF00" r="1" cy="125" cx="388.22507811823" /><circle fill="#00FF00" r="1" cy="200" cx="388.77346104662" /><circle fill="#00FF00" r="1" cy="155" cx="389.8873058449" /><circle fill="#00FF00" r="1" cy="270" cx="390.46713416416" /><circle fill="#00FF00" r="1" cy="215" cx="390.94693505375" /><circle fill="#00FF00" r="1" cy="220" cx="391.49206454266" /><circle fill="#00FF00" r="1" cy="225" cx="392.04044747105" /><circle fill="#00FF00" r="1" cy="215" cx="392.57798754006" /><circle fill="#00FF00" r="1" cy="225" cx="393.72192245258" /><circle fill="#00FF00" r="1" cy="185" cx="394.80730450266" /><circle fill="#00FF00" r="1" cy="210" cx="395.29659297498" /><circle fill="#00FF00" r="1" cy="220" cx="395.83684359727" /><circle fill="#00FF00" r="1" cy="70" cx="396.38197373247" /><circle fill="#00FF00" r="1" cy="190" cx="396.99107783666" /><circle fill="#00FF00" r="1" cy="205" cx="397.50015451118" /><circle fill="#00FF00" r="1" cy="215" cx="398.01600821516" /><circle fill="#00FF00" r="1" cy="240" cx="398.56032466735" /><circle fill="#00FF00" r="1" cy="220" cx="399.67362851831" /><circle fill="#00FF00" r="1" cy="220" cx="401.30766623246" /><circle fill="#00FF00" r="1" cy="195" cx="402.59852360211" /><circle fill="#00FF00" r="1" cy="230" cx="402.91025855574" /><circle fill="#00FF00" r="1" cy="205" cx="403.45484580474" /><circle fill="#00FF00" r="1" cy="195" cx="403.99753618348" /><circle fill="#00FF00" r="1" cy="225" cx="404.54618990868" /><circle fill="#00FF00" r="1" cy="260" cx="405.08671197407" /><circle fill="#00FF00" r="1" cy="215" cx="406.20001517873" /><circle fill="#00FF00" r="1" cy="245" cx="406.74785586721" /><circle fill="#00FF00" r="1" cy="195" cx="407.29163072578" /><circle fill="#00FF00" r="1" cy="225" cx="407.8050446733" /><circle fill="#00FF00" r="1" cy="220" cx="409.49438245671" /><circle fill="#00FF00" r="1" cy="215" cx="409.97851997302" /><circle fill="#00FF00" r="1" cy="190" cx="410.52446379124" /><circle fill="#00FF00" r="1" cy="185" cx="411.13166973258" /><circle fill="#00FF00" r="1" cy="155" cx="411.60984454873" /><circle fill="#00FF00" r="1" cy="205" cx="412.72396079011" /><circle fill="#00FF00" r="1" cy="195" cx="413.78548880809" /><circle fill="#00FF00" r="1" cy="260" cx="414.35338914186" /><circle fill="#00FF00" r="1" cy="180" cx="415.44066870849" /><circle fill="#00FF00" r="1" cy="185" cx="415.95733544919" /><circle fill="#00FF00" r="1" cy="265" cx="416.70279059425" /><circle fill="#00FF00" r="1" cy="185" cx="417.04678268288" /><circle fill="#00FF00" r="1" cy="240" cx="417.61793580983" /><circle fill="#00FF00" r="1" cy="245" cx="418.13053736693" /><circle fill="#00FF00" r="1" cy="280" cx="420.335187907" /><circle fill="#00FF00" r="1" cy="220" cx="420.85022857426" /><circle fill="#00FF00" r="1" cy="245" cx="421.96380257573" /><circle fill="#00FF00" r="1" cy="245" cx="422.47884388928" /><circle fill="#00FF00" r="1" cy="210" cx="423.02532930112" /><circle fill="#00FF00" r="1" cy="200" cx="423.59621098497" /><circle fill="#00FF00" r="1" cy="195" cx="424.11558892524" /><circle fill="#00FF00" r="1" cy="175" cx="424.65692338106" /><circle fill="#00FF00" r="1" cy="240" cx="425.80709308313" /><circle fill="#00FF00" r="1" cy="215" cx="426.29204428245" /><circle fill="#00FF00" r="1" cy="205" cx="426.835005458" /><circle fill="#00FF00" r="1" cy="205" cx="427.94912169939" /><circle fill="#00FF00" r="1" cy="235" cx="428.46524684648" /><circle fill="#00FF00" r="1" cy="245" cx="430.11961564903" /><circle fill="#00FF00" r="1" cy="185" cx="430.85232977187" /><circle fill="#00FF00" r="1" cy="150" cx="431.7823862619" /><circle fill="#00FF00" r="1" cy="205" cx="433.40774943004" /><circle fill="#00FF00" r="1" cy="185" cx="433.89703790236" /><circle fill="#00FF00" r="1" cy="230" cx="434.47225750551" /><circle fill="#00FF00" r="1" cy="255" cx="434.98756896958" /><circle fill="#00FF00" r="1" cy="125" cx="435.5291748685" /><circle fill="#00FF00" r="1" cy="225" cx="436.64329110989" /><circle fill="#00FF00" r="1" cy="180" cx="437.16131312723" /><circle fill="#00FF00" r="1" cy="220" cx="437.73382217711" /><circle fill="#00FF00" r="1" cy="235" cx="438.24723612463" /><circle fill="#00FF00" r="1" cy="0" cx="439.35918405266" /><circle fill="#00FF00" r="1" cy="240" cx="439.91163281095" /><circle fill="#00FF00" r="1" cy="180" cx="440.42179396529" /><circle fill="#00FF00" r="1" cy="190" cx="441.02927134974" /><circle fill="#00FF00" r="1" cy="205" cx="441.51395175225" /><circle fill="#00FF00" r="1" cy="215" cx="442.08727319256" /><circle fill="#00FF00" r="1" cy="215" cx="442.60258530292" /><circle fill="#00FF00" r="1" cy="205" cx="443.14771479183" /><circle fill="#00FF00" r="1" cy="240" cx="443.68850765403" /><circle fill="#00FF00" r="1" cy="220" cx="445.01894142807" /><circle fill="#00FF00" r="1" cy="225" cx="445.34450123744" /><circle fill="#00FF00" r="1" cy="190" cx="446.4613280321" /><circle fill="#00FF00" r="1" cy="215" cx="447.01242151375" /><circle fill="#00FF00" r="1" cy="285" cx="448.60661138041" /><circle fill="#00FF00" r="1" cy="270" cx="449.12300732431" /><circle fill="#00FF00" r="1" cy="210" cx="449.66569770306" /><circle fill="#00FF00" r="1" cy="215" cx="450.78089842427" /><circle fill="#00FF00" r="1" cy="210" cx="451.29946332781" /><circle fill="#00FF00" r="1" cy="215" cx="451.9042295127" /><circle fill="#00FF00" r="1" cy="200" cx="452.38755463857" /><circle fill="#00FF00" r="1" cy="240" cx="452.96792390516" /><circle fill="#FF0000" r="0.5" cy="380" cx="461.70914345347" /><circle fill="#00FF00" r="1" cy="290" cx="461.70951636459" /><circle fill="#00FF00" r="1" cy="210" cx="462.07625473894" /><circle fill="#00FF00" r="1" cy="230" cx="462.61924693657" /><circle fill="#00FF00" r="1" cy="165" cx="463.16235934471" /><circle fill="#00FF00" r="1" cy="215" cx="463.7063384319" /><circle fill="#00FF00" r="1" cy="215" cx="464.25155775555" /><circle fill="#00FF00" r="1" cy="200" cx="465.94390726482" /><circle fill="#00FF00" r="1" cy="260" cx="466.45995033268" /><circle fill="#00FF00" r="1" cy="280" cx="466.99971494255" /><circle fill="#00FF00" r="1" cy="130" cx="467.54494977724" /><circle fill="#00FF00" r="1" cy="205" cx="468.66099391095" /><circle fill="#00FF00" r="1" cy="160" cx="469.17945863906" /><circle fill="#00FF00" r="1" cy="220" cx="469.72331686944" /><circle fill="#00FF00" r="1" cy="195" cx="470.26436889518" /><circle fill="#00FF00" r="1" cy="180" cx="471.37768890346" /><circle fill="#00FF00" r="1" cy="185" cx="472.46695000473" /><circle fill="#00FF00" r="1" cy="190" cx="473.00863345883" /><circle fill="#00FF00" r="1" cy="185" cx="474.09598864174" /><circle fill="#00FF00" r="1" cy="190" cx="474.61249316288" /><circle fill="#00FF00" r="1" cy="140" cx="475.36628872041" /><circle fill="#00FF00" r="1" cy="215" cx="475.69899976295" /><circle fill="#00FF00" r="1" cy="190" cx="476.27290092817" /><circle fill="#00FF00" r="1" cy="165" cx="477.90153304682" /><circle fill="#00FF00" r="1" cy="105" cx="478.96339002799" /><circle fill="#00FF00" r="1" cy="175" cx="480.10773469034" /><circle fill="#00FF00" r="1" cy="155" cx="480.59729395947" /><circle fill="#00FF00" r="1" cy="160" cx="481.16785831341" /><circle fill="#00FF00" r="1" cy="215" cx="482.28314369901" /><circle fill="#00FF00" r="1" cy="165" cx="482.80016008429" /><circle fill="#00FF00" r="1" cy="185" cx="483.3433875326" /><circle fill="#00FF00" r="1" cy="205" cx="483.88719793729" /><circle fill="#00FF00" r="1" cy="240" cx="484.97341693694" /><circle fill="#00FF00" r="1" cy="235" cx="485.48605533274" /><circle fill="#00FF00" r="1" cy="190" cx="486.0335321582" /><circle fill="#00FF00" r="1" cy="155" cx="486.57765536875" /><circle fill="#00FF00" r="1" cy="225" cx="487.14996277518" /><circle fill="#00FF00" r="1" cy="145" cx="487.66633157476" /><circle fill="#00FF00" r="1" cy="220" cx="488.26656918388" /><circle fill="#00FF00" r="1" cy="190" cx="488.7747274759" /><circle fill="#00FF00" r="1" cy="160" cx="490.05807815118" /><circle fill="#00FF00" r="1" cy="195" cx="490.38424806124" /><circle fill="#00FF00" r="1" cy="155" cx="490.95460430879" /><circle fill="#00FF00" r="1" cy="210" cx="491.47025313787" /><circle fill="#00FF00" r="1" cy="165" cx="492.01768149134" /><circle fill="#00FF00" r="1" cy="220" cx="492.56100846879" /><circle fill="#00FF00" r="1" cy="140" cx="493.67942449818" /><circle fill="#00FF00" r="1" cy="225" cx="494.22387214787" /><circle fill="#00FF00" r="1" cy="210" cx="494.73386914377" /><circle fill="#00FF00" r="1" cy="110" cx="495.31026823182" /><circle fill="#00FF00" r="1" cy="195" cx="495.82528304736" /><circle fill="#00FF00" r="1" cy="265" cx="496.96924316531" /><circle fill="#00FF00" r="1" cy="240" cx="498.02768319485" /><circle fill="#00FF00" r="1" cy="185" cx="498.54409917383" /><circle fill="#00FF00" r="1" cy="190" cx="499.08776480887" /><circle fill="#00FF00" r="1" cy="170" cx="499.63030330874" /><circle fill="#00FF00" r="1" cy="145" cx="500.20381346663" /><circle fill="#00FF00" r="1" cy="80" cx="500.71988561768" /><circle fill="#00FF00" r="1" cy="190" cx="501.2600580385" /><circle fill="#00FF00" r="1" cy="185" cx="501.80743404224" /><circle fill="#00FF00" r="1" cy="190" cx="502.41820881409" /><circle fill="#00FF00" r="1" cy="190" cx="502.89428576283" /><circle fill="#00FF00" r="1" cy="245" cx="503.4686503202" /><circle fill="#00FF00" r="1" cy="220" cx="504.17623527466" /><circle fill="#00FF00" r="1" cy="165" cx="504.61913735219" /><circle fill="#00FF00" r="1" cy="190" cx="505.07238722857" /><circle fill="#00FF00" r="1" cy="180" cx="505.64178566974" /><circle fill="#00FF00" r="1" cy="215" cx="506.72869555671" /><circle fill="#00FF00" r="1" cy="185" cx="507.27347733994" /><circle fill="#00FF00" r="1" cy="190" cx="507.7889865697" /><circle fill="#00FF00" r="1" cy="215" cx="508.33451740663" /><circle fill="#00FF00" r="1" cy="185" cx="508.95800088603" /><circle fill="#00FF00" r="1" cy="215" cx="510.56681507301" /><circle fill="#00FF00" r="1" cy="165" cx="511.05551800378" /><circle fill="#00FF00" r="1" cy="190" cx="511.5953349634" /><circle fill="#00FF00" r="1" cy="245" cx="512.20293514353" /><circle fill="#00FF00" r="1" cy="195" cx="512.68769051604" /><circle fill="#00FF00" r="1" cy="195" cx="513.23005710194" /><circle fill="#00FF00" r="1" cy="220" cx="513.77488864974" /><circle fill="#00FF00" r="1" cy="185" cx="514.32040203675" /><circle fill="#00FF00" r="1" cy="180" cx="514.89812344049" /><circle fill="#00FF00" r="1" cy="260" cx="515.41145207733" /><circle fill="#00FF00" r="1" cy="190" cx="516.75231960721" /><circle fill="#00FF00" r="1" cy="160" cx="517.61437959999" /><circle fill="#00FF00" r="1" cy="195" cx="518.31476355671" /><circle fill="#00FF00" r="1" cy="165" cx="518.67015690195" /><circle fill="#00FF00" r="1" cy="190" cx="519.84415349181" /><circle fill="#00FF00" r="1" cy="215" cx="520.30682696791" /><circle fill="#00FF00" r="1" cy="165" cx="520.84647653761" /><circle fill="#00FF00" r="1" cy="185" cx="521.45451555076" /><circle fill="#00FF00" r="1" cy="185" cx="521.93438106966" /><circle fill="#00FF00" r="1" cy="180" cx="523.04821294208" /><circle fill="#00FF00" r="1" cy="145" cx="523.56367176098" /><circle fill="#00FF00" r="1" cy="190" cx="524.14085609516" /><circle fill="#00FF00" r="1" cy="195" cx="524.65315971113" /><circle fill="#00FF00" r="1" cy="260" cx="525.22837285135" /><circle fill="#00FF00" r="1" cy="205" cx="526.31524589961" /><circle fill="#00FF00" r="1" cy="245" cx="526.8648554923" /><circle fill="#00FF00" r="1" cy="205" cx="527.40182811598" /><circle fill="#00FF00" r="1" cy="250" cx="527.9166574454" /><circle fill="#00FF00" r="1" cy="260" cx="528.51859351279" /><circle fill="#00FF00" r="1" cy="180" cx="529.0655688148" /><circle fill="#00FF00" r="1" cy="160" cx="529.5829109318" /><circle fill="#00FF00" r="1" cy="170" cx="531.23812508572" /><circle fill="#00FF00" r="1" cy="225" cx="531.724785084" /><circle fill="#00FF00" r="1" cy="195" cx="533.07983293083" /><circle fill="#00FF00" r="1" cy="185" cx="533.35376555463" /><circle fill="#00FF00" r="1" cy="175" cx="534.47197541653" /><circle fill="#00FF00" r="1" cy="140" cx="534.98947329016" /><circle fill="#00FF00" r="1" cy="230" cx="535.52995657796" /><circle fill="#00FF00" r="1" cy="190" cx="536.64324685676" /><circle fill="#00FF00" r="1" cy="220" cx="537.73242523252" /><circle fill="#00FF00" r="1" cy="170" cx="538.24399401324" /><circle fill="#00FF00" r="1" cy="245" cx="539.35939508531" /><circle fill="#00FF00" r="1" cy="215" cx="539.87534767214" /><circle fill="#00FF00" r="1" cy="220" cx="540.50539942834" /><circle fill="#00FF00" r="1" cy="190" cx="540.95898731601" /><circle fill="#00FF00" r="1" cy="190" cx="541.50388930975" /><circle fill="#00FF00" r="1" cy="220" cx="542.04447729704" /><circle fill="#00FF00" r="1" cy="200" cx="543.67241852836" /><circle fill="#00FF00" r="1" cy="190" cx="544.28038709557" /><circle fill="#00FF00" r="1" cy="280" cx="544.82912419257" /><circle fill="#00FF00" r="1" cy="195" cx="545.88103601549" /><circle fill="#00FF00" r="1" cy="195" cx="546.42517344449" /><circle fill="#00FF00" r="1" cy="190" cx="547.12997222939" /><circle fill="#00FF00" r="1" cy="210" cx="547.48198158395" /><circle fill="#00FF00" r="1" cy="220" cx="548.02207321813" /><circle fill="#00FF00" r="1" cy="170" cx="548.56779923558" /><circle fill="#00FF00" r="1" cy="240" cx="549.11016646777" /><circle fill="#00FF00" r="1" cy="205" cx="549.6544137666" /><circle fill="#00FF00" r="1" cy="220" cx="550.7698303497" /><circle fill="#00FF00" r="1" cy="190" cx="551.28560262076" /><circle fill="#00FF00" r="1" cy="215" cx="552.39859689732" /><circle fill="#00FF00" r="1" cy="245" cx="552.9174015756" /><circle fill="#00FF00" r="1" cy="240" cx="553.49127753539" /><circle fill="#00FF00" r="1" cy="190" cx="554.00645521679" /><circle fill="#00FF00" r="1" cy="185" cx="554.55080462993" /><circle fill="#00FF00" r="1" cy="220" cx="555.69405641064" /><circle fill="#00FF00" r="1" cy="220" cx="556.72545295163" /><circle fill="#00FF00" r="1" cy="195" cx="557.26542502158" /><circle fill="#00FF00" r="1" cy="160" cx="557.84371193179" /><circle fill="#00FF00" r="1" cy="190" cx="558.35530914941" /><circle fill="#00FF00" r="1" cy="170" cx="558.92592197533" /><circle fill="#00FF00" r="1" cy="190" cx="559.44712698619" /><circle fill="#00FF00" r="1" cy="215" cx="560.01782318392" /><circle fill="#00FF00" r="1" cy="165" cx="560.58915016372" /><circle fill="#00FF00" r="1" cy="175" cx="561.3538376989" /><circle fill="#00FF00" r="1" cy="190" cx="561.6203780222" /><circle fill="#00FF00" r="1" cy="190" cx="563.82462010503" /><circle fill="#00FF00" r="1" cy="195" cx="564.34123966634" /><circle fill="#00FF00" r="1" cy="185" cx="565.99706844501" /><circle fill="#00FF00" r="1" cy="135" cx="567.0868905287" /><circle fill="#00FF00" r="1" cy="225" cx="567.60549808759" /><circle fill="#00FF00" r="1" cy="240" cx="568.74921326045" /><circle fill="#00FF00" r="1" cy="180" cx="570.34831043064" /><circle fill="#00FF00" r="1" cy="190" cx="570.86393728574" /><circle fill="#00FF00" r="1" cy="210" cx="571.46412513029" /><circle fill="#00FF00" r="1" cy="175" cx="571.94908085366" /><circle fill="#00FF00" r="1" cy="225" cx="572.5590328944" /><circle fill="#00FF00" r="1" cy="210" cx="573.03700800598" /><circle fill="#00FF00" r="1" cy="190" cx="573.57970484765" /><circle fill="#00FF00" r="1" cy="245" cx="574.15320725003" /><circle fill="#00FF00" r="1" cy="190" cx="574.66861113401" /><circle fill="#00FF00" r="1" cy="190" cx="575.41736689794" /><circle fill="#00FF00" r="1" cy="190" cx="576.30376499635" /><circle fill="#00FF00" r="1" cy="195" cx="576.84727810622" /><circle fill="#00FF00" r="1" cy="190" cx="577.39048616574" /><circle fill="#00FF00" r="1" cy="180" cx="577.96112742855" /><circle fill="#00FF00" r="1" cy="260" cx="578.47791631865" /><circle fill="#00FF00" r="1" cy="165" cx="579.02370825799" /><circle fill="#00FF00" r="1" cy="200" cx="579.56675603682" /><circle fill="#00FF00" r="1" cy="195" cx="580.11024329496" /><circle fill="#00FF00" r="1" cy="190" cx="581.76942181078" /><circle fill="#00FF00" r="1" cy="185" cx="583.39738566236" /><circle fill="#00FF00" r="1" cy="190" cx="583.91345005789" /><circle fill="#00FF00" r="1" cy="175" cx="585.02792305307" /><circle fill="#00FF00" r="1" cy="260" cx="585.5725452019" /><circle fill="#00FF00" r="1" cy="185" cx="586.08916153174" /><circle fill="#00FF00" r="1" cy="185" cx="586.67069412591" /><circle fill="#00FF00" r="1" cy="85" cx="587.20907243708" /><circle fill="#00FF00" r="1" cy="155" cx="588.2917891744" /><circle fill="#00FF00" r="1" cy="210" cx="588.83479042013" /><circle fill="#00FF00" r="1" cy="185" cx="589.53464700168" /><circle fill="#00FF00" r="1" cy="195" cx="589.89873298914" /><circle fill="#00FF00" r="1" cy="250" cx="591.00895854605" /><circle fill="#00FF00" r="1" cy="185" cx="591.55305590488" /><circle fill="#00FF00" r="1" cy="200" cx="592.14701283764" /><circle fill="#00FF00" r="1" cy="205" cx="592.61520953458" /><circle fill="#00FF00" r="1" cy="190" cx="593.18698504179" /><circle fill="#00FF00" r="1" cy="170" cx="593.70617749594" /><circle fill="#00FF00" r="1" cy="245" cx="594.24719009779" /><circle fill="#00FF00" r="1" cy="145" cx="596.45009952425" /><circle fill="#00FF00" r="1" cy="60" cx="596.96472914909" /><circle fill="#00FF00" r="1" cy="200" cx="598.07782941772" /><circle fill="#00FF00" r="1" cy="185" cx="598.62616452042" /><circle fill="#00FF00" r="1" cy="215" cx="599.16806060494" /><circle fill="#00FF00" r="1" cy="215" cx="599.68459550186" /><circle fill="#00FF00" r="1" cy="190" cx="600.81536154613" /><circle fill="#00FF00" r="1" cy="190" cx="601.37017444459" /><circle fill="#00FF00" r="1" cy="195" cx="601.8566631752" /><circle fill="#00FF00" r="1" cy="170" cx="602.99652514859" /><circle fill="#00FF00" r="1" cy="245" cx="604.2457412074" /><circle fill="#00FF00" r="1" cy="185" cx="604.57047505418" /><circle fill="#00FF00" r="1" cy="160" cx="605.11629413783" /><circle fill="#00FF00" r="1" cy="180" cx="605.69061733245" /><circle fill="#00FF00" r="1" cy="270" cx="606.24036135411" /><circle fill="#00FF00" r="1" cy="190" cx="607.29043124168" /><circle fill="#00FF00" r="1" cy="195" cx="607.89419825743" /><circle fill="#00FF00" r="1" cy="165" cx="608.37941572951" /><circle fill="#00FF00" r="1" cy="155" cx="608.92430608997" /><circle fill="#00FF00" r="1" cy="185" cx="609.52925517581" /><circle fill="#00FF00" r="1" cy="205" cx="610.01278000625" /><circle fill="#00FF00" r="1" cy="200" cx="610.55619617215" /><circle fill="#00FF00" r="1" cy="95" cx="611.10095404253" /><circle fill="#00FF00" r="1" cy="220" cx="611.64398954179" /><circle fill="#00FF00" r="1" cy="195" cx="612.18874805846" /><circle fill="#00FF00" r="1" cy="230" cx="612.73243049712" /><circle fill="#00FF00" r="1" cy="215" cx="613.84633798583" /><circle fill="#00FF00" r="1" cy="195" cx="614.42203843105" /><circle fill="#00FF00" r="1" cy="70" cx="614.90873332915" /><circle fill="#00FF00" r="1" cy="170" cx="615.45374260755" /><circle fill="#00FF00" r="1" cy="245" cx="616.11785982686" /><circle fill="#00FF00" r="1" cy="190" cx="617.14059604028" /><circle fill="#00FF00" r="1" cy="225" cx="617.71999198945" /><circle fill="#00FF00" r="1" cy="60" cx="618.36241185674" /><circle fill="#00FF00" r="1" cy="160" cx="618.71981258836" /><circle fill="#00FF00" r="1" cy="245" cx="620.37836743133" /><circle fill="#00FF00" r="1" cy="265" cx="621.46290994667" /><circle fill="#00FF00" r="1" cy="105" cx="621.97991728384" /><circle fill="#00FF00" r="1" cy="220" cx="622.55355023742" /><circle fill="#00FF00" r="1" cy="250" cx="623.06761306322" /><circle fill="#00FF00" r="1" cy="245" cx="623.6106091386" /><circle fill="#00FF00" r="1" cy="215" cx="624.1573601769" /><circle fill="#00FF00" r="1" cy="250" cx="624.70515885633" /><circle fill="#00FF00" r="1" cy="195" cx="625.27330542777" /><circle fill="#00FF00" r="1" cy="190" cx="626.36118927844" /><circle fill="#00FF00" r="1" cy="205" cx="626.87436086605" /><circle fill="#00FF00" r="1" cy="190" cx="627.41965968376" /><circle fill="#00FF00" r="1" cy="195" cx="628.59224864724" /><circle fill="#00FF00" r="1" cy="190" cx="629.05073866809" /><circle fill="#00FF00" r="1" cy="160" cx="629.59899039898" /><circle fill="#00FF00" r="1" cy="20" cx="630.13747147075" /><circle fill="#00FF00" r="1" cy="180" cx="630.81033949866" /><circle fill="#00FF00" r="1" cy="190" cx="631.22480791117" /><circle fill="#00FF00" r="1" cy="40" cx="631.82690361295" /><circle fill="#00FF00" r="1" cy="160" cx="632.53647397982" /><circle fill="#00FF00" r="1" cy="190" cx="633.42876174727" /><circle fill="#00FF00" r="1" cy="190" cx="633.94353097143" /><circle fill="#00FF00" r="1" cy="170" cx="634.49116872387" /><circle fill="#00FF00" r="1" cy="200" cx="635.03493647322" /><circle fill="#00FF00" r="1" cy="190" cx="635.57883412748" /><circle fill="#00FF00" r="1" cy="165" cx="636.12293019372" /><circle fill="#00FF00" r="1" cy="235" cx="636.66779793392" /><circle fill="#00FF00" r="1" cy="215" cx="637.21217319878" /><circle fill="#00FF00" r="1" cy="185" cx="638.32456513017" /><circle fill="#00FF00" r="1" cy="195" cx="638.84780144026" /><circle fill="#00FF00" r="1" cy="240" cx="639.38720994263" /><circle fill="#00FF00" r="1" cy="170" cx="639.93271105008" /><circle fill="#00FF00" r="1" cy="225" cx="640.47628103374" /><circle fill="#00FF00" r="1" cy="165" cx="641.02295774833" /><circle fill="#00FF00" r="1" cy="160" cx="641.56306489355" /><circle fill="#00FF00" r="1" cy="210" cx="642.13963783445" /><circle fill="#00FF00" r="1" cy="180" cx="642.69210533524" /><circle fill="#00FF00" r="1" cy="195" cx="643.22624784142" /><circle fill="#00FF00" r="1" cy="205" cx="643.74225471687" /><circle fill="#00FF00" r="1" cy="230" cx="644.28757744742" /><circle fill="#00FF00" r="1" cy="225" cx="644.83402795943" /><circle fill="#00FF00" r="1" cy="250" cx="645.3736342275" /><circle fill="#00FF00" r="1" cy="195" cx="645.91996517529" /><circle fill="#00FF00" r="1" cy="205" cx="648.38572135997" /><circle fill="#00FF00" r="1" cy="160" cx="648.66825162091" /><circle fill="#00FF00" r="1" cy="225" cx="650.2940503906" /><circle fill="#00FF00" r="1" cy="230" cx="650.8428062301" /><circle fill="#00FF00" r="1" cy="260" cx="651.38747620462" /><circle fill="#00FF00" r="1" cy="210" cx="651.90186153068" /><circle fill="#00FF00" r="1" cy="195" cx="653.04559738492" /><circle fill="#00FF00" r="1" cy="230" cx="653.56419977347" /><circle fill="#00FF00" r="1" cy="255" cx="654.10796493764" /><circle fill="#00FF00" r="1" cy="95" cx="654.62110485689" /><circle fill="#00FF00" r="1" cy="180" cx="655.16542389425" /><circle fill="#00FF00" r="1" cy="220" cx="655.70900809636" /><circle fill="#00FF00" r="1" cy="255" cx="656.28250080434" /><circle fill="#00FF00" r="1" cy="250" cx="656.84132653666" /><circle fill="#00FF00" r="1" cy="215" cx="658.4522431151" /><circle fill="#00FF00" r="1" cy="220" cx="659.56888054587" /><circle fill="#00FF00" r="1" cy="225" cx="660.62856081187" /><circle fill="#00FF00" r="1" cy="225" cx="661.14444553793" /><circle fill="#00FF00" r="1" cy="225" cx="661.71848759504" /><circle fill="#00FF00" r="1" cy="260" cx="663.00061225231" /><circle fill="#00FF00" r="1" cy="275" cx="663.34680109119" /><circle fill="#00FF00" r="1" cy="295" cx="663.8607883007" /><circle fill="#00FF00" r="1" cy="250" cx="665.00496169537" /><circle fill="#00FF00" r="1" cy="290" cx="665.49429346933" /><circle fill="#00FF00" r="1" cy="190" cx="666.03427135593" /><circle fill="#00FF00" r="1" cy="160" cx="667.15079116136" /><circle fill="#00FF00" r="1" cy="220" cx="667.66382702742" /><circle fill="#00FF00" r="1" cy="245" cx="668.26786871774" /><circle fill="#00FF00" r="1" cy="240" cx="670.47148454255" /><circle fill="#00FF00" r="1" cy="140" cx="670.92260488316" /><circle fill="#00FF00" r="1" cy="195" cx="671.47162311767" /><circle fill="#00FF00" r="1" cy="190" cx="672.01255493288" /><circle fill="#00FF00" r="1" cy="285" cx="673.18625228903" /><circle fill="#00FF00" r="1" cy="120" cx="673.66967759034" /><circle fill="#00FF00" r="1" cy="165" cx="674.21707750692" /><circle fill="#00FF00" r="1" cy="190" cx="674.73044556763" /><circle fill="#00FF00" r="1" cy="165" cx="675.30479267509" /><circle fill="#00FF00" r="1" cy="190" cx="675.82175412545" /><circle fill="#00FF00" r="1" cy="190" cx="676.36124599964" /><circle fill="#00FF00" r="1" cy="190" cx="677.69116144661" /><circle fill="#00FF00" r="1" cy="250" cx="678.02367795493" /><circle fill="#00FF00" r="1" cy="250" cx="679.10674110535" /><circle fill="#00FF00" r="1" cy="190" cx="680.19853502929" /><circle fill="#00FF00" r="1" cy="215" cx="680.71307352682" /><circle fill="#00FF00" r="1" cy="175" cx="681.25702870116" /><circle fill="#00FF00" r="1" cy="190" cx="681.80112218223" /><circle fill="#00FF00" r="1" cy="190" cx="682.34432959546" /><circle fill="#00FF00" r="1" cy="185" cx="682.88984427506" /><circle fill="#00FF00" r="1" cy="190" cx="683.43181597587" /><circle fill="#00FF00" r="1" cy="190" cx="684.0062878179" /><circle fill="#00FF00" r="1" cy="180" cx="684.5533109456" /><circle fill="#00FF00" r="1" cy="190" cx="685.06754633166" /><circle fill="#00FF00" r="1" cy="200" cx="687.26915735527" /><circle fill="#00FF00" r="1" cy="175" cx="687.78551839934" /><circle fill="#00FF00" r="1" cy="210" cx="688.92936024565" /><circle fill="#00FF00" r="1" cy="205" cx="690.01422267607" /><circle fill="#00FF00" r="1" cy="180" cx="690.50506548331" /><circle fill="#00FF00" r="1" cy="230" cx="691.04967405998" /><circle fill="#00FF00" r="1" cy="190" cx="691.81309098292" /><circle fill="#00FF00" r="1" cy="185" cx="692.14006229643" /><circle fill="#00FF00" r="1" cy="180" cx="692.68469995629" /><circle fill="#00FF00" r="1" cy="255" cx="693.82755362045" /><circle fill="#00FF00" r="1" cy="160" cx="694.31615766838" /><circle fill="#00FF00" r="1" cy="190" cx="695.42896516623" /><circle fill="#00FF00" r="1" cy="150" cx="696.5171114119" /><circle fill="#00FF00" r="1" cy="190" cx="697.03558583442" /><circle fill="#00FF00" r="1" cy="185" cx="697.58054276307" /><circle fill="#00FF00" r="1" cy="150" cx="698.73068984488" /><circle fill="#00FF00" r="1" cy="210" cx="699.78452051202" /><circle fill="#00FF00" r="1" cy="190" cx="700.30016934109" /><circle fill="#00FF00" r="1" cy="175" cx="700.84359972544" /><circle fill="#00FF00" r="1" cy="210" cx="701.38873244581" /><circle fill="#00FF00" r="1" cy="225" cx="701.93451275188" /><circle fill="#00FF00" r="1" cy="150" cx="703.04639088025" /><circle fill="#00FF00" r="1" cy="185" cx="703.62376974865" /><circle fill="#00FF00" r="1" cy="190" cx="705.22122081031" /><circle fill="#00FF00" r="1" cy="190" cx="705.9263298159" /><circle fill="#00FF00" r="1" cy="200" cx="706.8814411506" /><circle fill="#00FF00" r="1" cy="185" cx="707.37134295508" /><circle fill="#00FF00" r="1" cy="185" cx="708.48443869966" /><circle fill="#00FF00" r="1" cy="190" cx="709.00056061528" /><circle fill="#00FF00" r="1" cy="190" cx="709.5446405242" /><circle fill="#00FF00" r="1" cy="45" cx="710.09513876991" /><circle fill="#00FF00" r="1" cy="230" cx="710.63631423762" /><circle fill="#00FF00" r="1" cy="120" cx="711.17635287577" /><circle fill="#00FF00" r="1" cy="250" cx="711.72183717959" /><circle fill="#00FF00" r="1" cy="195" cx="712.31563577054" /><circle fill="#00FF00" r="1" cy="210" cx="712.81142724406" /><circle fill="#00FF00" r="1" cy="210" cx="713.38994035685" /><circle fill="#00FF00" r="1" cy="200" cx="713.92929392431" /><circle fill="#00FF00" r="1" cy="245" cx="715.01359407973" /><circle fill="#00FF00" r="1" cy="195" cx="715.52781589364" /><circle fill="#00FF00" r="1" cy="185" cx="716.07051467419" /><circle fill="#00FF00" r="1" cy="160" cx="716.64479909122" /><circle fill="#00FF00" r="1" cy="225" cx="717.2192851517" /><circle fill="#00FF00" r="1" cy="185" cx="718.39330306923" /><circle fill="#00FF00" r="1" cy="215" cx="719.36249519175" /></g><rect y="0" x="720" height="381" fill="#111" stroke-width="1" width="80" /><rect y="0" x="720" height="380" fill="grey" stroke-width="1" width="1" /><rect y="380" x="0" height="20" fill="#111" stroke-width="1" width="800" /><rect y="380" x="0" height="1" fill="grey" stroke-width="1" width="720" /><text y="15" x="724" fill="#AAA">0.076ms</text><line stroke-width="0.5" stroke="grey" x2="720" y2="0" y1="0" x1="0" /><text y="46.222222222222" x="724" fill="#AAA">0.068ms</text><line stroke-width="0.5" stroke="grey" x2="720" y2="42.222222222222" y1="42.222222222222" x1="0" /><text y="88.444444444444" x="724" fill="#AAA">0.059ms</text><line stroke-width="0.5" stroke="grey" x2="720" y2="84.444444444444" y1="84.444444444444" x1="0" /><text y="130.66666666667" x="724" fill="#AAA">0.051ms</text><line stroke-width="0.5" stroke="grey" x2="720" y2="126.66666666667" y1="126.66666666667" x1="0" /><text y="172.88888888889" x="724" fill="#AAA">0.042ms</text><line stroke-width="0.5" stroke="grey" x2="720" y2="168.88888888889" y1="168.88888888889" x1="0" /><text y="215.11111111111" x="724" fill="#AAA">0.034ms</text><line stroke-width="0.5" stroke="grey" x2="720" y2="211.11111111111" y1="211.11111111111" x1="0" /><text y="257.33333333333" x="724" fill="#AAA">0.025ms</text><line stroke-width="0.5" stroke="grey" x2="720" y2="253.33333333333" y1="253.33333333333" x1="0" /><text y="299.55555555556" x="724" fill="#AAA">0.017ms</text><line stroke-width="0.5" stroke="grey" x2="720" y2="295.55555555556" y1="295.55555555556" x1="0" /><text y="341.77777777778" x="724" fill="#AAA">0.008ms</text><line stroke-width="0.5" stroke="grey" x2="720" y2="337.77777777778" y1="337.77777777778" x1="0" /><text y="380" x="724" fill="#AAA">0.000ms</text><line stroke-width="0.5" stroke="grey" x2="720" y2="380" y1="380" x1="0" /><text y="-395" x="3" style="transform: rotate(90deg);" fill="#AAA">265s</text><line stroke-width="0.5" stroke="grey" x2="0" y2="380" y1="0" x1="0" /><text y="-395" x="45.384615384615" style="transform: rotate(90deg);" fill="#AAA">245s</text><line stroke-width="0.5" stroke="grey" x2="55.384615384615" y2="380" y1="0" x1="55.384615384615" /><text y="-395" x="100.76923076923" style="transform: rotate(90deg);" fill="#AAA">224s</text><line stroke-width="0.5" stroke="grey" x2="110.76923076923" y2="380" y1="0" x1="110.76923076923" /><text y="-395" x="156.15384615385" style="transform: rotate(90deg);" fill="#AAA">204s</text><line stroke-width="0.5" stroke="grey" x2="166.15384615385" y2="380" y1="0" x1="166.15384615385" /><text y="-395" x="211.53846153846" style="transform: rotate(90deg);" fill="#AAA">183s</text><line stroke-width="0.5" stroke="grey" x2="221.53846153846" y2="380" y1="0" x1="221.53846153846" /><text y="-395" x="266.92307692308" style="transform: rotate(90deg);" fill="#AAA">163s</text><line stroke-width="0.5" stroke="grey" x2="276.92307692308" y2="380" y1="0" x1="276.92307692308" /><text y="-395" x="322.30769230769" style="transform: rotate(90deg);" fill="#AAA">143s</text><line stroke-width="0.5" stroke="grey" x2="332.30769230769" y2="380" y1="0" x1="332.30769230769" /><text y="-395" x="377.69230769231" style="transform: rotate(90deg);" fill="#AAA">122s</text><line stroke-width="0.5" stroke="grey" x2="387.69230769231" y2="380" y1="0" x1="387.69230769231" /><text y="-395" x="433.07692307692" style="transform: rotate(90deg);" fill="#AAA">102s</text><line stroke-width="0.5" stroke="grey" x2="443.07692307692" y2="380" y1="0" x1="443.07692307692" /><text y="-395" x="488.46153846154" style="transform: rotate(90deg);" fill="#AAA">81s</text><line stroke-width="0.5" stroke="grey" x2="498.46153846154" y2="380" y1="0" x1="498.46153846154" /><text y="-395" x="543.84615384615" style="transform: rotate(90deg);" fill="#AAA">61s</text><line stroke-width="0.5" stroke="grey" x2="553.84615384615" y2="380" y1="0" x1="553.84615384615" /><text y="-395" x="599.23076923077" style="transform: rotate(90deg);" fill="#AAA">40s</text><line stroke-width="0.5" stroke="grey" x2="609.23076923077" y2="380" y1="0" x1="609.23076923077" /><text y="-395" x="654.61538461538" style="transform: rotate(90deg);" fill="#AAA">20s</text><line stroke-width="0.5" stroke="grey" x2="664.61538461538" y2="380" y1="0" x1="664.61538461538" /><text y="-395" x="710" style="transform: rotate(90deg);" fill="#AAA">0s</text><line stroke-width="0.5" stroke="grey" x2="720" y2="380" y1="0" x1="720" /></svg>